<svg version="1.0" xmlns="http://www.w3.org/2000/svg" viewBox="0 0 626.000000 626.000000"
 >

<g transform="translate(0.000000,626.000000) scale(0.100000,-0.100000)"
fill="#ffffff" stroke="none">
<path d="M1593 5286 c-17 -8 -36 -23 -42 -35 -7 -11 -11 -80 -11 -165 l0 -145
-202 -3 c-196 -3 -204 -4 -237 -27 -69 -49 -71 -61 -71 -481 0 -347 2 -378 19
-417 11 -24 35 -52 55 -65 l36 -23 2 -1365 3 -1365 27 -50 c35 -68 92 -122
158 -154 l55 -26 1745 0 1745 0 56 26 c66 31 121 85 158 154 l26 50 3 1365 2
1365 36 23 c20 13 44 41 55 65 17 39 19 70 19 415 0 393 -2 415 -48 465 -38
42 -63 47 -262 49 -105 1 -193 5 -195 9 -3 4 -5 69 -6 146 0 105 -4 143 -15
161 -13 20 -18 21 -32 10 -13 -11 -15 -11 -10 4 7 18 -10 28 -45 28 -20 -1
-20 -2 -4 -11 9 -5 22 -7 27 -4 5 3 8 0 5 -7 -3 -7 4 -19 15 -26 17 -10 20
-10 20 5 0 9 3 13 7 9 4 -4 7 -96 7 -204 -1 -175 0 -183 6 -72 l6 125 3 -135
c6 -282 4 -272 34 -314 15 -22 27 -52 27 -70 0 -45 -30 -97 -70 -124 -47 -32
-127 -27 -166 9 -55 51 -69 121 -37 182 l17 32 6 -47 c8 -65 16 -68 14 -5 -2
71 6 123 17 106 6 -10 9 -8 9 9 0 13 -4 21 -9 18 -10 -7 -21 41 -21 95 0 35 3
39 25 39 24 0 24 -1 28 -97 1 -54 3 -19 3 77 0 96 -1 147 -3 113 -3 -51 -7
-63 -21 -64 -14 0 -13 -2 3 -9 18 -8 17 -9 -8 -9 l-28 -1 3 160 c3 143 5 161
22 177 19 17 19 17 7 0 -21 -27 -5 -31 29 -7 17 12 29 25 26 28 -3 2 -12 -1
-20 -7 -9 -7 -17 -8 -20 -2 -3 5 0 12 6 14 7 3 8 6 2 6 -6 1 -21 -11 -35 -25
-23 -24 -24 -33 -27 -174 l-3 -148 -382 -1 c-210 0 -387 3 -394 7 -7 5 -13 55
-15 149 -3 137 -4 144 -29 168 -15 16 -40 27 -65 30 l-39 5 44 -12 c60 -17 65
-36 9 -33 -24 1 -32 0 -18 -3 22 -5 20 -7 -15 -12 l-40 -7 37 -2 c31 -1 35 -4
31 -21 -4 -14 0 -20 10 -20 20 0 31 17 17 25 -7 5 -5 12 7 21 26 19 35 17 28
-7 -5 -14 -3 -19 3 -15 8 4 12 -43 14 -151 2 -127 0 -160 -11 -169 -12 -9 -11
-13 5 -22 18 -11 18 -11 -3 -12 -28 0 -30 -20 -3 -27 11 -3 20 -12 20 -20 0
-8 -5 -11 -11 -7 -7 4 -9 0 -6 -12 3 -11 9 -37 13 -58 4 -22 16 -55 27 -73 26
-46 20 -123 -14 -159 -115 -124 -306 -11 -244 144 22 54 35 53 35 -2 0 -34 6
-52 26 -73 14 -15 22 -22 19 -14 -6 9 -2 12 11 8 39 -12 103 -11 117 2 36 29
33 146 -4 148 -10 1 -19 -3 -19 -9 0 -5 -7 -8 -15 -4 -11 4 -15 -1 -15 -17 0
-16 3 -18 9 -9 5 9 13 -6 23 -45 l15 -59 -26 2 c-14 1 -36 2 -48 3 -16 1 -23
7 -23 21 0 11 5 20 10 20 7 0 6 8 -1 23 -7 12 -12 23 -11 25 7 10 0 52 -8 47
-6 -4 -10 10 -10 34 0 22 -4 43 -10 46 -6 4 -10 -10 -10 -34 0 -23 -4 -41 -9
-41 -14 0 -18 110 -13 322 4 174 7 196 21 191 14 -4 14 -3 1 6 -13 10 -11 14
10 32 22 18 23 19 3 9 -37 -18 -43 -43 -43 -194 l0 -146 -377 0 c-208 0 -388
3 -400 6 -22 6 -23 10 -25 153 l-2 146 -6 -150 c-3 -82 -2 -154 3 -159 11 -15
7 -224 -6 -296 -13 -69 -28 -82 -39 -34 l-7 29 2 -30 c2 -43 -9 -55 -51 -54
-38 1 -36 3 11 13 25 6 27 10 25 54 -1 36 -2 40 -5 15 -6 -49 -20 -40 -40 25
-13 45 -17 97 -18 251 0 133 -3 179 -8 145 -4 -27 -6 -120 -2 -206 5 -143 11
-182 40 -250 4 -10 3 -18 -2 -18 -5 0 -14 12 -20 28 l-12 27 5 -30 c3 -22 -3
-15 -23 28 -15 31 -31 57 -36 57 -5 0 -7 -23 -5 -52 7 -65 39 -98 99 -98 21 0
39 5 39 11 0 5 4 8 9 4 19 -11 51 47 51 91 0 56 14 56 35 -1 20 -51 15 -92
-16 -136 -56 -80 -165 -79 -233 1 -33 40 -36 109 -6 158 11 18 20 41 20 51 0
14 5 18 20 14 17 -4 20 -1 19 23 -1 29 -1 29 -8 4 l-7 -25 -12 22 c-9 16 -11
82 -9 240 2 120 2 156 0 80 l-4 -137 -392 2 -392 3 -5 147 c-3 80 -7 149 -10
151 -3 3 -3 -71 -2 -164 3 -151 2 -168 -12 -163 -12 5 -16 0 -15 -17 0 -13 3
-18 6 -11 15 38 21 -5 20 -142 -2 -155 2 -186 13 -98 l6 47 18 -34 c13 -25 17
-48 13 -84 -12 -125 -170 -172 -252 -75 -49 57 -41 144 16 193 17 14 27 25 22
25 -4 0 -9 46 -10 103 l-1 102 9 -80 c13 -122 16 -127 19 -35 l3 85 7 -60 7
-60 1 78 c1 47 -2 77 -8 77 -7 0 -10 51 -8 145 2 89 7 145 13 144 6 0 9 -13 7
-30 -1 -16 2 -29 8 -29 5 0 10 9 10 19 0 25 20 38 31 20 5 -8 9 -27 10 -44 2
-30 2 -30 8 5 4 19 6 -71 4 -200 -2 -234 -1 -259 12 -166 5 37 9 46 17 35 7
-10 7 -5 2 16 -10 36 -12 70 -13 243 -1 100 -4 132 -13 131 -7 -1 -24 0 -38 1
-21 2 -22 3 -5 7 11 3 27 14 37 25 10 12 22 17 30 13 8 -5 7 -1 -2 8 -22 24
-70 29 -107 13z m62 -6 c-3 -5 -19 -10 -34 -10 -15 0 -32 -5 -39 -12 -9 -9
-12 -9 -12 0 0 6 15 16 33 21 44 13 59 13 52 1z m-79 -56 c-3 -9 -6 -78 -6
-155 0 -104 -3 -139 -12 -139 -10 0 -12 36 -10 155 3 132 5 155 19 155 10 0
13 -6 9 -16z m3131 -31 c-3 -10 -5 -4 -5 12 0 17 2 24 5 18 2 -7 2 -21 0 -30z
m-1144 -568 c5 -54 4 -58 -9 -41 -14 20 -19 87 -7 99 9 10 10 8 16 -58z m14
18 c-3 -10 -5 -2 -5 17 0 19 2 27 5 18 2 -10 2 -26 0 -35z m-1030 -25 c-3 -8
-6 -5 -6 6 -1 11 2 17 5 13 3 -3 4 -12 1 -19z m2511 -2031 l-3 -1322 -22 -47
c-30 -66 -92 -129 -160 -164 l-58 -29 -1685 0 -1685 0 -56 28 c-66 32 -131 98
-162 165 l-22 47 -3 1315 c-1 723 -1 1319 2 1325 2 7 641 9 1930 7 l1926 -2
-2 -1323z"/>
<path d="M2595 5291 c-32 -14 -60 -50 -48 -62 13 -13 53 9 53 28 0 8 -8 5 -21
-8 -27 -27 -37 -17 -11 11 11 11 36 23 58 26 29 3 34 2 19 -5 -17 -8 -15 -9
11 -8 17 0 36 -3 43 -7 6 -4 11 -5 11 -2 0 9 -58 36 -77 35 -10 0 -27 -4 -38
-8z"/>
<path d="M2607 5213 c-4 -3 -6 -18 -6 -32 1 -21 2 -22 6 -6 3 11 12 26 21 33
14 10 14 12 1 12 -9 0 -19 -3 -22 -7z"/>
<path d="M3584 5020 c0 -113 2 -159 3 -102 2 56 2 148 0 205 -1 56 -3 10 -3
-103z"/>
<path d="M4625 5210 c3 -5 8 -10 11 -10 2 0 4 5 4 10 0 6 -5 10 -11 10 -5 0
-7 -4 -4 -10z"/>
<path d="M1714 5100 c0 -63 1 -89 3 -57 2 31 2 83 0 115 -2 31 -3 5 -3 -58z"/>
<path d="M3564 5050 c0 -91 2 -128 3 -82 2 45 2 119 0 165 -1 45 -3 8 -3 -83z"/>
<path d="M4601 5194 c0 -11 3 -14 6 -6 3 7 2 16 -1 19 -3 4 -6 -2 -5 -13z"/>
<path d="M3601 5164 c0 -11 3 -14 6 -6 3 7 2 16 -1 19 -3 4 -6 -2 -5 -13z"/>
<path d="M3650 5156 c0 -31 6 -34 13 -6 3 11 1 23 -4 26 -5 3 -9 -6 -9 -20z"/>
<path d="M4591 5124 c0 -11 3 -14 6 -6 3 7 2 16 -1 19 -3 4 -6 -2 -5 -13z"/>
<path d="M4652 5100 c0 -19 2 -27 5 -17 2 9 2 25 0 35 -3 9 -5 1 -5 -18z"/>
<path d="M1602 5080 c0 -14 2 -19 5 -12 2 6 2 18 0 25 -3 6 -5 1 -5 -13z"/>
<path d="M3663 5060 c0 -25 2 -35 4 -22 2 12 2 32 0 45 -2 12 -4 2 -4 -23z"/>
<path d="M3662 4990 c0 -14 2 -19 5 -12 2 6 2 18 0 25 -3 6 -5 1 -5 -13z"/>
<path d="M4662 4894 c-1 -61 -4 -133 -7 -160 l-5 -49 10 40 c6 21 9 93 7 160
l-3 120 -2 -111z"/>
<path d="M2540 4873 c0 -29 4 -53 8 -53 12 0 14 73 2 90 -7 11 -10 0 -10 -37z"/>
<path d="M3541 4844 c0 -11 3 -14 6 -6 3 7 2 16 -1 19 -3 4 -6 -2 -5 -13z"/>
<path d="M4692 4825 c0 -16 2 -22 5 -12 2 9 2 23 0 30 -3 6 -5 -1 -5 -18z"/>
<path d="M3661 4773 c-1 -32 3 -43 14 -43 17 0 20 21 6 36 -5 5 -11 18 -14 29
-3 11 -5 1 -6 -22z"/>
<path d="M1602 4740 c0 -19 2 -27 5 -17 2 9 2 25 0 35 -3 9 -5 1 -5 -18z"/>
<path d="M2663 4720 c0 -30 2 -43 4 -27 2 15 2 39 0 55 -2 15 -4 2 -4 -28z"/>
<path d="M4678 4737 c-3 -19 -2 -25 4 -19 6 6 8 18 6 28 -3 14 -5 12 -10 -9z"/>
<path d="M2560 4708 c0 -7 5 -20 10 -28 8 -12 10 -11 10 7 0 12 -4 25 -10 28
-5 3 -10 0 -10 -7z"/>
<path d="M4591 4673 c-1 -12 -5 -25 -11 -28 -5 -3 -10 -19 -10 -36 0 -21 -5
-29 -17 -29 -15 -1 -14 -4 6 -20 15 -13 38 -20 64 -20 l41 0 -30 23 c-21 16
-29 30 -28 52 0 17 -3 41 -7 55 -6 23 -7 23 -8 3z"/>
<path d="M1540 4639 c0 -24 4 -38 10 -34 5 3 7 0 4 -8 -3 -9 6 -24 22 -36 35
-28 94 -28 125 0 l24 21 -27 -16 c-15 -9 -44 -15 -65 -15 l-38 1 30 9 c29 8
28 8 -7 6 -27 -2 -39 1 -42 13 -10 35 -20 86 -18 93 1 4 -2 7 -8 7 -5 0 -10
-18 -10 -41z"/>
<path d="M4692 4633 c-1 -33 2 -53 9 -53 6 0 8 7 5 16 -3 8 -2 12 4 9 6 -3 10
-1 10 4 0 6 -4 11 -9 11 -6 0 -12 15 -14 33 -3 22 -4 15 -5 -20z"/>
<path d="M1600 4655 c-8 -10 -9 -15 -2 -15 6 0 9 -6 6 -14 -3 -8 -1 -17 5 -21
7 -4 11 7 11 29 0 40 -2 42 -20 21z"/>
<path d="M1666 4658 c-11 -36 -13 -57 -5 -69 7 -11 9 -9 10 6 1 11 3 25 3 32
1 6 5 15 9 19 10 11 9 24 -3 24 -6 0 -12 -6 -14 -12z"/>
<path d="M4551 4644 c0 -11 3 -14 6 -6 3 7 2 16 -1 19 -3 4 -6 -2 -5 -13z"/>
<path d="M4641 4624 c0 -11 3 -14 6 -6 3 7 2 16 -1 19 -3 4 -6 -2 -5 -13z"/>
<path d="M3608 4543 c12 -2 32 -2 45 0 12 2 2 4 -23 4 -25 0 -35 -2 -22 -4z"/>
</g>
</svg>