<?xml version="1.0" encoding="UTF-8"?>
<svg version="1.1" xmlns="http://www.w3.org/2000/svg" width="1280" height="353">
<path d="M0 0 C2.28125 1.1796875 2.28125 1.1796875 4.5 2.875 C5.79550781 3.83792969 5.79550781 3.83792969 7.1171875 4.8203125 C8.06851563 5.53960938 9.01984375 6.25890625 10 7 C12.20409162 8.58974824 14.41165087 10.17329542 16.625 11.75 C17.21144287 12.16999268 17.79788574 12.58998535 18.40209961 13.02270508 C24.91459317 17.6784786 31.52174623 22.19479919 38.12744141 26.71679688 C47.34088631 33.03046916 56.48884632 39.43748818 65.63574219 45.84692383 C70.24818907 49.07781644 74.86642342 52.29948834 79.5 55.5 C85.01628409 59.31021685 90.50947737 63.15276759 96 67 C110.37956098 77.09900617 110.37956098 77.09900617 124.9375 86.9375 C129.8772925 90.21343055 134.70448201 93.62045197 139.51416016 97.08227539 C143.90804434 100.23810051 148.34735089 103.32099104 152.8125 106.375 C166.00179504 115.40279534 179.00699121 124.69280512 192 134 C190.00187917 141.64311577 187.71321841 149.14089448 185.1875 156.625 C184.80859619 157.75526611 184.42969238 158.88553223 184.03930664 160.05004883 C179.77073167 172.74840932 175.42441629 185.42052062 171.08691406 198.09545898 C168.00157263 207.11457499 164.9325396 216.13789276 161.9375 225.1875 C158.4392054 235.7511297 154.84900142 246.28285801 151.25 256.8125 C150.96905487 257.63559662 150.68810974 258.45869324 150.39865112 259.30673218 C145.28280359 274.28970102 145.28280359 274.28970102 142.859375 280.82421875 C141.52483214 284.45349093 140.33551981 288.09871919 139.21875 291.80078125 C136.53012464 300.68190946 133.50787545 309.44986782 130.50927734 318.23022461 C129.49888989 321.19075272 128.49342562 324.15292264 127.48828125 327.11523438 C126.83623386 329.02874685 126.18389991 330.9421617 125.53125 332.85546875 C125.23633667 333.72552048 124.94142334 334.5955722 124.63757324 335.49198914 C122.60474855 341.42692024 120.33679501 347.15801248 118 353 C38.14 353 -41.72 353 -124 353 C-127.8692498 343.32687549 -131.5280486 333.81128673 -134.75 323.9375 C-135.18006453 322.63264161 -135.61066118 321.3279585 -136.04174805 320.0234375 C-136.92955377 317.33517332 -137.81515043 314.64619897 -138.69873047 311.95654297 C-140.72224557 305.79957887 -142.76565317 299.64924167 -144.8125 293.5 C-145.21694336 292.2843335 -145.62138672 291.06866699 -146.03808594 289.81616211 C-149.74498182 278.70479187 -153.54036702 267.62426651 -157.34243774 256.54516602 C-161.35360568 244.85438629 -165.29984627 233.14480778 -169.18920898 221.4128418 C-172.85638492 210.37588948 -176.62347656 199.37412419 -180.39956665 188.37405396 C-184.42715827 176.63950891 -188.40148631 164.8897092 -192.28540039 153.10668945 C-192.61789795 152.10081787 -192.95039551 151.09494629 -193.29296875 150.05859375 C-193.5768042 149.19548584 -193.86063965 148.33237793 -194.15307617 147.44311523 C-194.74227889 145.74344629 -195.3837264 144.0613665 -196.06445312 142.39624023 C-197.449511 138.84865594 -197.70926447 136.78001065 -197 133 C-194.41195138 130.2732916 -191.34901056 128.38155477 -188.1875 126.375 C-187.28692871 125.77526367 -186.38635742 125.17552734 -185.45849609 124.55761719 C-183.57892579 123.30675675 -181.69304689 122.06532871 -179.80126953 120.83300781 C-175.53021882 118.03825021 -171.33072778 115.14168011 -167.125 112.25 C-166.33375732 111.71036621 -165.54251465 111.17073242 -164.72729492 110.61474609 C-159.55112493 107.08419174 -154.4374591 103.47784786 -149.35498047 99.81420898 C-142.76250388 95.07975126 -136.04094242 90.53376441 -129.3359375 85.9609375 C-123.2414952 81.80386998 -117.20828073 77.56355246 -111.1875 73.30078125 C-103.50331932 67.86335928 -95.79555079 62.46700036 -88.02758789 57.14990234 C-83.09295576 53.76625866 -78.1961108 50.33180895 -73.3125 46.875 C-64.78055716 40.83705394 -56.20523961 34.8665149 -47.5703125 28.9765625 C-39.65579744 23.57716755 -31.7606937 18.15617055 -23.9375 12.625 C-23.23423584 12.12991943 -22.53097168 11.63483887 -21.80639648 11.12475586 C-18.81780181 9.01660523 -15.85503149 6.8911814 -12.9296875 4.6953125 C-11.63417969 3.73238281 -11.63417969 3.73238281 -10.3125 2.75 C-9.60738281 2.20859375 -8.90226563 1.6671875 -8.17578125 1.109375 C-5.23982945 -0.38759145 -3.25729755 -0.38022929 0 0 Z " fill="#EDEDED" transform="translate(197,0)"/>
<path d="M0 0 C2.28125 1.1796875 2.28125 1.1796875 4.5 2.875 C5.79550781 3.83792969 5.79550781 3.83792969 7.1171875 4.8203125 C8.06851563 5.53960938 9.01984375 6.25890625 10 7 C12.20409162 8.58974824 14.41165087 10.17329542 16.625 11.75 C17.21144287 12.16999268 17.79788574 12.58998535 18.40209961 13.02270508 C24.91459317 17.6784786 31.52174623 22.19479919 38.12744141 26.71679688 C47.34088631 33.03046916 56.48884632 39.43748818 65.63574219 45.84692383 C70.24818907 49.07781644 74.86642342 52.29948834 79.5 55.5 C85.01628409 59.31021685 90.50947737 63.15276759 96 67 C110.37956098 77.09900617 110.37956098 77.09900617 124.9375 86.9375 C129.8772925 90.21343055 134.70448201 93.62045197 139.51416016 97.08227539 C143.90804434 100.23810051 148.34735089 103.32099104 152.8125 106.375 C166.00179504 115.40279534 179.00699121 124.69280512 192 134 C190.00187917 141.64311577 187.71321841 149.14089448 185.1875 156.625 C184.80859619 157.75526611 184.42969238 158.88553223 184.03930664 160.05004883 C179.77073167 172.74840932 175.42441629 185.42052062 171.08691406 198.09545898 C168.00157263 207.11457499 164.9325396 216.13789276 161.9375 225.1875 C158.4392054 235.7511297 154.84900142 246.28285801 151.25 256.8125 C150.96905487 257.63559662 150.68810974 258.45869324 150.39865112 259.30673218 C147.60728551 267.48190622 144.7891895 275.64006061 141.80908203 283.7487793 C140.70985326 286.80731536 139.7471178 289.88715053 138.8125 293 C137.9036224 296.01269389 136.99512321 299.01463036 136 302 C124.78 302 113.56 302 102 302 C103.63844866 298.72310268 105.10508769 296.47780705 107.375 293.6875 C114.57103184 284.54659469 118.26205738 275.81468178 117 264 C112.95403337 247.0786913 105.49966901 229.92775604 98.0625 214.24609375 C97.3774262 212.79786788 96.72835018 211.33178996 96.125 209.84765625 C91.62913038 199.39074522 80.59718672 193.46290636 71.4375 187.5 C70.32183125 186.76628507 69.20659416 186.03191335 68.09179688 185.296875 C65.39868024 183.52478094 62.70145055 181.75935208 60 180 C60.37890625 178.0625 60.37890625 178.0625 61 176 C62.32467746 175.3162955 63.65863633 174.65035814 65 174 C65.67784722 172.67231578 66.34308319 171.33816387 67 170 C67.94543949 168.84651115 68.9262068 167.72121094 69.9375 166.625 C74.19671431 161.72013462 76.33885243 157.83990964 76.22988892 151.17660522 C75.83523887 147.44002945 74.4150989 144.26597835 72.88671875 140.86328125 C72.56138657 140.10972351 72.23605438 139.35616577 71.90086365 138.57977295 C70.8456159 136.15003155 69.76816256 133.73103322 68.6875 131.3125 C67.94951166 129.63802555 67.21171962 127.96346456 66.47412109 126.28881836 C49.73938121 88.11966017 49.73938121 88.11966017 20 60 C18.40671875 59.01773438 18.40671875 59.01773438 16.78125 58.015625 C7.18828833 52.61418262 -1.47148558 50.91279685 -12.2265625 53.89453125 C-38.58800513 64.07808596 -52.36011064 87.67297853 -64 112 C-65.02037679 114.32449471 -66.01866911 116.65875372 -67 119 C-67.87312557 120.99358173 -68.74980553 122.98560838 -69.62890625 124.9765625 C-70.10650391 126.059375 -70.58410156 127.1421875 -71.07617188 128.2578125 C-72.0705805 130.51058579 -73.0653749 132.76318882 -74.06054688 135.015625 C-74.53685547 136.09585938 -75.01316406 137.17609375 -75.50390625 138.2890625 C-75.93517822 139.26568848 -76.3664502 140.24231445 -76.81079102 141.24853516 C-80.13698271 148.83536149 -80.13698271 148.83536149 -80 157 C-76.92871685 164.00071896 -71.01117457 173.49441271 -64 177 C-64 177.99 -64 178.98 -64 180 C-66.36743164 181.88183594 -66.36743164 181.88183594 -69.66015625 183.984375 C-70.24284775 184.36305725 -70.82553925 184.7417395 -71.42588806 185.13189697 C-73.29848312 186.34799311 -75.17940123 187.55024311 -77.0625 188.75 C-92.29162774 198.28438811 -92.29162774 198.28438811 -102 213 C-102.29132813 213.69222656 -102.58265625 214.38445312 -102.8828125 215.09765625 C-103.95342554 217.72020836 -104.97843731 220.35791279 -106 223 C-106.55572585 224.42979004 -107.11173911 225.85946838 -107.66796875 227.2890625 C-108.58785419 229.65359692 -109.50711681 232.01836082 -110.42407227 234.3840332 C-112.00345718 238.45597156 -113.6039153 242.51693031 -115.25 246.5625 C-115.5490625 247.32691406 -115.848125 248.09132812 -116.15625 248.87890625 C-116.70389446 250.25562357 -117.28569478 251.61941584 -117.90625 252.96484375 C-120.11225051 258.28579869 -120.31296857 263.43648794 -120.375 269.125 C-120.39578613 270.27162109 -120.39578613 270.27162109 -120.41699219 271.44140625 C-120.35535762 278.92838385 -117.56808845 284.43378618 -113.5625 290.6875 C-112.98628906 291.59886719 -112.41007812 292.51023437 -111.81640625 293.44921875 C-110.06752402 296.05750878 -110.06752402 296.05750878 -107.77734375 298.20703125 C-106 300 -106 300 -106 302 C-117.88 302 -129.76 302 -142 302 C-143.051875 298.82375 -144.10375 295.6475 -145.1875 292.375 C-148.851021 281.35226644 -152.60540613 270.36178491 -156.375 259.375 C-160.30053376 247.93295726 -164.19345391 236.48228456 -168 225 C-172.05628244 212.76450601 -176.21435757 200.56592245 -180.39956665 188.37405396 C-184.42715827 176.63950891 -188.40148631 164.8897092 -192.28540039 153.10668945 C-192.61789795 152.10081787 -192.95039551 151.09494629 -193.29296875 150.05859375 C-193.5768042 149.19548584 -193.86063965 148.33237793 -194.15307617 147.44311523 C-194.74227889 145.74344629 -195.3837264 144.0613665 -196.06445312 142.39624023 C-197.449511 138.84865594 -197.70926447 136.78001065 -197 133 C-194.41195138 130.2732916 -191.34901056 128.38155477 -188.1875 126.375 C-187.28692871 125.77526367 -186.38635742 125.17552734 -185.45849609 124.55761719 C-183.57892579 123.30675675 -181.69304689 122.06532871 -179.80126953 120.83300781 C-175.53021882 118.03825021 -171.33072778 115.14168011 -167.125 112.25 C-166.33375732 111.71036621 -165.54251465 111.17073242 -164.72729492 110.61474609 C-159.55112493 107.08419174 -154.4374591 103.47784786 -149.35498047 99.81420898 C-142.76250388 95.07975126 -136.04094242 90.53376441 -129.3359375 85.9609375 C-123.2414952 81.80386998 -117.20828073 77.56355246 -111.1875 73.30078125 C-103.50331932 67.86335928 -95.79555079 62.46700036 -88.02758789 57.14990234 C-83.09295576 53.76625866 -78.1961108 50.33180895 -73.3125 46.875 C-64.78055716 40.83705394 -56.20523961 34.8665149 -47.5703125 28.9765625 C-39.65579744 23.57716755 -31.7606937 18.15617055 -23.9375 12.625 C-23.23423584 12.12991943 -22.53097168 11.63483887 -21.80639648 11.12475586 C-18.81780181 9.01660523 -15.85503149 6.8911814 -12.9296875 4.6953125 C-11.63417969 3.73238281 -11.63417969 3.73238281 -10.3125 2.75 C-9.60738281 2.20859375 -8.90226563 1.6671875 -8.17578125 1.109375 C-5.23982945 -0.38759145 -3.25729755 -0.38022929 0 0 Z " fill="#333333" transform="translate(197,0)"/>
<path d="M0 0 C5.61 0 11.22 0 17 0 C17.72574219 1.7428125 18.45148438 3.485625 19.19921875 5.28125 C20.92712523 9.42871177 22.65845288 13.57470275 24.39453125 17.71875 C29.34260054 29.54127479 34.20002153 41.39380423 38.92871094 53.30566406 C40.55100543 57.38580125 42.18296868 61.46205602 43.81494141 65.53833008 C44.68054432 67.7016921 45.54482684 69.86558296 46.40771484 72.0300293 C48.2357891 76.61308366 50.07019309 81.19172356 51.96875 85.74609375 C52.25347168 86.43533936 52.53819336 87.12458496 52.83154297 87.8347168 C53.56102831 89.59558217 54.2996126 91.35267082 55.0390625 93.109375 C55.98235492 95.94692132 56.20852172 98.03679665 56 101 C52.89632503 101.14515677 49.79351973 101.23400853 46.6875 101.3125 C45.80642578 101.35439453 44.92535156 101.39628906 44.01757812 101.43945312 C41.59128003 101.48558047 39.38480379 101.45177242 37 101 C35.10546875 98.97265625 35.10546875 98.97265625 34 96 C33.45318094 94.77224928 32.90348278 93.5457785 32.3515625 92.3203125 C31.77031368 90.92424607 31.19507228 89.52566744 30.625 88.125 C30.16275024 86.99626465 30.16275024 86.99626465 29.69116211 85.84472656 C27.33286597 80.00396602 25.31700793 74.0884749 23.3828125 68.09375 C20.84508541 60.40740209 17.80072265 52.89246978 14.89404297 45.34033203 C13.20350437 40.91501717 11.58865527 36.4628671 10 32 C8.11229797 34.83155305 7.00997408 37.29281596 5.79296875 40.453125 C5.16418823 42.08302368 5.16418823 42.08302368 4.52270508 43.74584961 C4.0820874 44.90221924 3.64146973 46.05858887 3.1875 47.25 C2.73463623 48.43279541 2.28177246 49.61559082 1.81518555 50.83422852 C-0.89295681 57.95390402 -3.45125199 65.08253309 -5.77734375 72.3359375 C-7.59195986 77.77398833 -9.62483663 83.13021124 -11.6784668 88.48217773 C-14.01894025 94.58097475 -14.01894025 94.58097475 -15 101 C-13.86421471 102.7658856 -13.86421471 102.7658856 -12.0625 103.875 C-11.051875 104.57625 -10.04125 105.2775 -9 106 C-9.34007281 111.34114358 -12.32655507 113.98514314 -15.875 117.625 C-16.41769531 118.19734375 -16.96039062 118.7696875 -17.51953125 119.359375 C-19.97702271 121.94304572 -22.47398997 124.48333518 -25 127 C-23.72483566 130.60671483 -22.26636146 133.07542221 -19.75 135.9375 C-6.24706488 152.97758652 -4.37919444 176.1451714 -6 197 C-8.36323454 216.36232661 -18.13627493 235.25420877 -33.1015625 247.90625 C-55.54406421 264.11808412 -80.98841125 268.53875113 -108.10839844 264.31494141 C-116.70487167 262.88367521 -123.6506406 259.26408752 -131.20141602 255.04858398 C-132.25993774 254.46185913 -132.25993774 254.46185913 -133.33984375 253.86328125 C-133.97269287 253.50532471 -134.60554199 253.14736816 -135.25756836 252.77856445 C-137.13842416 251.79602316 -137.13842416 251.79602316 -140 252 C-142.16232294 253.98174301 -142.16232294 253.98174301 -144.3125 256.5625 C-145.10140625 257.46871094 -145.8903125 258.37492187 -146.703125 259.30859375 C-147.46109375 260.19675781 -148.2190625 261.08492188 -149 262 C-149.63421875 262.73347656 -150.2684375 263.46695312 -150.921875 264.22265625 C-152.28928959 265.80820603 -153.64600249 267.4029773 -155 269 C-159.07239298 268.47315196 -161.21598637 267.36950851 -164.25 264.625 C-164.93578125 264.01914062 -165.6215625 263.41328125 -166.328125 262.7890625 C-168 261 -168 261 -169 258 C-168.35933594 257.3709375 -167.71867188 256.741875 -167.05859375 256.09375 C-161.81386016 250.90373047 -156.75821515 245.64053319 -152 240 C-152.96616264 237.18202563 -153.89490121 235.12490327 -155.82421875 232.83203125 C-158.47775555 229.37814583 -160.23248123 225.81006927 -162.0625 221.875 C-162.40087891 221.17890625 -162.73925781 220.4828125 -163.08789062 219.765625 C-168.06885894 209.16782008 -169.53695453 199.1320243 -169.50097656 187.52270508 C-169.50000868 185.33213731 -169.541669 183.14513942 -169.5859375 180.95507812 C-169.67454279 170.50669512 -167.68921493 161.74741717 -164 152 C-163.68611328 151.16605713 -163.37222656 150.33211426 -163.04882812 149.47290039 C-156.20215086 132.62000568 -142.54502628 118.23807439 -125.74121094 111.03125 C-113.27828563 106.21024346 -101.13610349 103.61585635 -87.75 103.6875 C-86.09303101 103.69595947 -86.09303101 103.69595947 -84.40258789 103.70458984 C-70.24149797 103.91490821 -54.31303829 106.78237443 -42.28515625 114.8125 C-40.12343423 116.24591348 -40.12343423 116.24591348 -38.046875 115.5703125 C-35.10623891 113.31432832 -32.69480426 110.64064471 -30.25 107.875 C-29.74339844 107.31167969 -29.23679687 106.74835938 -28.71484375 106.16796875 C-27.47115468 104.78348469 -26.23483695 103.39238512 -25 102 C-31.435 101.505 -31.435 101.505 -38 101 C-39.45798751 96.62603747 -37.46692881 93.61750998 -35.75 89.5625 C-35.00395125 87.75181952 -34.25923569 85.94058935 -33.515625 84.12890625 C-33.11021484 83.14680176 -32.70480469 82.16469727 -32.28710938 81.15283203 C-29.96293017 75.45965103 -27.73793546 69.72749878 -25.5 64 C-21.99201521 55.04630934 -18.44840726 46.10851585 -14.85644531 37.18823242 C-12.07106197 30.24130239 -9.40776519 23.2496207 -6.78833008 16.23852539 C-4.71545456 10.72919815 -2.43478206 5.35975255 0 0 Z M-108 134 C-108.88558594 134.39058594 -109.77117188 134.78117188 -110.68359375 135.18359375 C-124.52217436 141.95893211 -131.9598996 152.78872139 -137.09375 167.03515625 C-141.19604291 181.14628417 -139.73254575 196.6768832 -133.62109375 210.0078125 C-132.48677967 212.06961417 -131.31966852 214.05294808 -130 216 C-125.63333204 212.43537309 -121.85277872 208.81500612 -118.20703125 204.52734375 C-115.25882414 201.15125525 -112.19239557 197.89264579 -109.125 194.625 C-104.4477042 189.63543546 -99.82069502 184.61001938 -95.26171875 179.51171875 C-90.561599 174.29206936 -85.77139131 169.15441928 -81 164 C-73.62946851 156.03330546 -66.28627511 148.04391876 -59 140 C-61.54420235 136.98921383 -64.31691935 135.83397317 -67.9375 134.375 C-68.97777344 133.94960937 -70.01804687 133.52421875 -71.08984375 133.0859375 C-81.96059162 129.02947051 -97.45308239 129.10786714 -108 134 Z M-48 151 C-56.29972287 159.95455105 -56.29972287 159.95455105 -64.5 169 C-70.44553039 175.6311411 -76.51085966 182.15150383 -82.56152344 188.68652344 C-88.29649435 194.88230808 -94.00525527 201.09636375 -99.63671875 207.38671875 C-103.00131947 211.10724417 -106.41530504 214.78187061 -109.83984375 218.44726562 C-112.70441379 221.53012509 -115.41288802 224.67546893 -118 228 C-111.66361129 234.89548184 -104.65455528 237.45039353 -95.47851562 238.20825195 C-92.85715494 238.30283456 -90.24799252 238.3290209 -87.625 238.3125 C-86.70178955 238.30758545 -85.7785791 238.3026709 -84.82739258 238.29760742 C-70.87994128 238.05779144 -61.36652583 233.67517206 -51.171875 224.2890625 C-39.16401515 211.63329654 -36.4905734 195.84479226 -36.71484375 179.109375 C-36.95251063 172.63623679 -38.48877302 166.95666468 -41 161 C-41.34675781 160.17628906 -41.69351563 159.35257813 -42.05078125 158.50390625 C-43.66283452 155.01216153 -44.75265199 153.16489867 -48 151 Z " fill="#323232" transform="translate(824,69)"/>
<path d="M0 0 C1.51400391 0.51046875 1.51400391 0.51046875 3.05859375 1.03125 C10.65871204 3.89702709 16.59831554 8.03027128 23 13 C23.33 9.04 23.66 5.08 24 1 C64.26 1 104.52 1 146 1 C146 9.91 146 18.82 146 28 C130.82 28 115.64 28 100 28 C100.00523682 31.81167725 100.01047363 35.62335449 100.01586914 39.55053711 C100.03240161 52.11144475 100.04352067 64.67235221 100.05181217 77.23326778 C100.05697514 84.85270173 100.06401784 92.47212539 100.07543945 100.09155273 C100.08538628 106.73028827 100.09185342 113.36901637 100.09408849 120.00775915 C100.09539561 123.52504336 100.09848147 127.04230626 100.10573006 130.55958366 C100.11374389 134.47974938 100.11399114 138.39989399 100.11352539 142.32006836 C100.11712067 143.49466614 100.12071594 144.66926392 100.12442017 145.87945557 C100.1230455 146.94101364 100.12167084 148.00257172 100.12025452 149.09629822 C100.12163721 150.48866652 100.12163721 150.48866652 100.12304783 151.90916348 C100 154 100 154 99 155 C96.9394469 155.09993532 94.8754741 155.13080906 92.8125 155.1328125 C91.55695313 155.13410156 90.30140625 155.13539063 89.0078125 155.13671875 C88.35071289 155.13462402 87.69361328 155.1325293 87.01660156 155.13037109 C85.00838665 155.12502234 83.00039541 155.13031691 80.9921875 155.13671875 C79.10886719 155.13478516 79.10886719 155.13478516 77.1875 155.1328125 C76.02605469 155.13168457 74.86460937 155.13055664 73.66796875 155.12939453 C71 155 71 155 70 154 C69.90394136 152.36776544 69.87812179 150.7313561 69.87974548 149.09629822 C69.87768349 147.50396111 69.87768349 147.50396111 69.87557983 145.87945557 C69.87917511 144.70485779 69.88277039 143.53026001 69.88647461 142.32006836 C69.88632858 141.09097244 69.88618256 139.86187653 69.8860321 138.59553528 C69.88661108 135.21551328 69.89164036 131.83555171 69.89860606 128.45554042 C69.90484012 124.92678806 69.90544344 121.39803497 69.90663147 117.86927795 C69.90974463 111.18276881 69.91795782 104.49627594 69.92798096 97.80977398 C69.93914256 90.19925697 69.94465267 82.5887392 69.94967639 74.97821605 C69.96014044 59.31880126 69.97773959 43.65940273 70 28 C63.56214206 27.88828693 57.12725596 27.85689417 50.68847656 27.87792969 C48.50446788 27.87599865 46.32039429 27.85655394 44.13671875 27.81835938 C31.00909668 27.60197 21.35053413 27.89323404 11.20556641 36.85205078 C10.47772949 37.56087402 9.74989258 38.26969727 9 39 C8.48856445 38.60087402 7.97712891 38.20174805 7.45019531 37.79052734 C-6.07042748 27.30462968 -16.98912368 23.5806119 -34 25 C-47.86742319 27.56747192 -58.07497706 35.63363098 -66 47 C-74.0998553 59.25604927 -74.88623948 76.26496564 -72.2734375 90.390625 C-69.41474996 103.65303552 -63.51214926 114.45430849 -52.58203125 122.859375 C-40.49125731 130.62515032 -25.54053877 132.2380596 -11.578125 129.2734375 C-2.67957352 126.24989653 3.25510003 121.3021256 9 114 C13.89915621 114.47231941 17.12102048 116.940897 20.9375 119.8125 C22.13346252 120.69489488 23.33007135 121.5764145 24.52734375 122.45703125 C25.39141846 123.09632568 25.39141846 123.09632568 26.27294922 123.74853516 C28.79845674 125.57858202 31.39114977 127.29130268 34 129 C33.34652744 135.60601354 28.53581578 139.44223434 23.78173828 143.58789062 C12.7561533 152.32617283 0.11823207 157.16796466 -13.8125 158.3125 C-14.80934814 158.39516113 -15.80619629 158.47782227 -16.83325195 158.56298828 C-38.09253835 160.04215885 -58.91028958 156.00758626 -76 142.65625 C-78.41123762 140.50335926 -80.72144407 138.29188082 -83 136 C-83.886875 135.195625 -84.77375 134.39125 -85.6875 133.5625 C-102.63615984 114.78155262 -106.15144222 91.46175024 -105 67 C-103.56102882 50.7889817 -97.48310935 36.28270979 -87 24 C-86.3191333 23.15924927 -86.3191333 23.15924927 -85.62451172 22.30151367 C-76.22511154 10.87951679 -64.03233447 4.10967647 -50 0 C-48.906875 -0.33773437 -47.81375 -0.67546875 -46.6875 -1.0234375 C-32.04377052 -4.86037623 -14.33798848 -4.89108823 0 0 Z " fill="#323232" transform="translate(1134,176)"/>
<path d="M0 0 C1.14725524 0.00054477 2.29451048 0.00108953 3.47653103 0.00165081 C4.79044323 -0.00254368 6.10435543 -0.00673817 7.45808315 -0.01105976 C8.9226835 -0.00557586 10.3872831 0.00010713 11.85188198 0.00596905 C13.38748156 0.00489664 14.92308074 0.00295857 16.45867825 0.00021648 C20.63621944 -0.00464116 24.81365424 0.00303493 28.99118257 0.01316953 C33.35493972 0.02193371 37.71869338 0.02019291 42.08245754 0.01980877 C49.41056513 0.02074607 56.73863136 0.02943936 64.06672573 0.04307842 C72.55096224 0.05881049 81.03515347 0.06407636 89.51940352 0.06334287 C97.66727363 0.06273348 105.81512891 0.0678304 113.96299458 0.07613468 C117.43707234 0.07967413 120.91114486 0.08149887 124.38522434 0.08202839 C128.4719138 0.08302962 132.55856492 0.08910817 136.64524174 0.09919453 C138.14933697 0.10212641 139.65343662 0.10334351 141.1575346 0.10276699 C143.20210329 0.10227968 145.24667036 0.10852525 147.29122829 0.1151762 C149.01154562 0.11768997 149.01154562 0.11768997 150.76661682 0.12025452 C153.32038784 0.24888897 153.32038784 0.24888897 154.32038784 1.24888897 C156.24394205 33.48377812 153.34409278 67.51403583 152.32038784 99.24888897 C101.50038784 99.24888897 50.68038784 99.24888897 -1.67961216 99.24888897 C-2.17461216 85.10013897 -2.66961216 70.95138897 -3.17961216 56.37388897 C-3.33623325 51.92291729 -3.49285435 47.47194561 -3.65422153 42.886096 C-3.84465122 37.40880108 -3.84465122 37.40880108 -3.93364048 34.83650494 C-3.99550271 33.05775543 -4.05804359 31.27902944 -4.12114048 29.5003233 C-4.21713339 26.79042669 -4.31090404 24.08046089 -4.40422153 21.370471 C-4.43232662 20.59140455 -4.46043171 19.8123381 -4.48938847 19.00966358 C-4.56565523 16.75622087 -4.62509183 14.50295676 -4.67961216 12.24888897 C-4.70835926 11.35146858 -4.73710636 10.45404819 -4.76672459 9.52943325 C-4.78490742 8.62997101 -4.80309025 7.73050877 -4.82182407 6.80379009 C-4.84254223 5.98117624 -4.86326038 5.15856239 -4.88460636 4.31102085 C-4.54764596 0.92137964 -3.25860438 0.30266719 0 0 Z " fill="#353535" transform="translate(119.679612159729,212.7511110305786)"/>
<path d="M0 0 C17.139375 -0.020625 34.27875 -0.04125 51.9375 -0.0625 C57.35792725 -0.071604 62.77835449 -0.08070801 68.36303711 -0.09008789 C74.96008301 -0.09460449 74.96008301 -0.09460449 78.04420471 -0.09544373 C80.20749619 -0.09698366 82.37078678 -0.10050959 84.53407288 -0.10557556 C87.80259706 -0.11284997 91.0710686 -0.11390752 94.33959961 -0.11352539 C95.31031119 -0.1171235 96.28102278 -0.12072161 97.28114986 -0.12442875 C98.1557665 -0.12305125 99.03038313 -0.12167376 99.9315033 -0.12025452 C101.08051825 -0.12163721 101.08051825 -0.12163721 102.25274563 -0.12304783 C104 0 104 0 105 1 C105.09971786 2.91458282 105.13080589 4.83282317 105.1328125 6.75 C105.13410156 7.9153125 105.13539062 9.080625 105.13671875 10.28125 C105.13285156 11.5084375 105.12898438 12.735625 105.125 14 C105.12886719 15.2271875 105.13273437 16.454375 105.13671875 17.71875 C105.13542969 18.8840625 105.13414063 20.049375 105.1328125 21.25 C105.13168457 22.32765625 105.13055664 23.4053125 105.12939453 24.515625 C105 27 105 27 104 28 C101.82194281 28.09429342 99.6407872 28.11742538 97.46069336 28.11352539 C96.77779739 28.11367142 96.09490143 28.11381744 95.39131165 28.1139679 C93.12412386 28.11326876 90.85701726 28.1054764 88.58984375 28.09765625 C87.02185613 28.09579207 85.45386793 28.09436817 83.88587952 28.09336853 C79.75123497 28.08954334 75.61662534 28.07971306 71.48199463 28.06866455 C66.52524283 28.05665582 61.56847939 28.05204819 56.61171722 28.04621124 C49.07445384 28.03650129 41.53726712 28.01734477 34 28 C34 38.89 34 49.78 34 61 C38.24746094 60.98839844 42.49492188 60.97679687 46.87109375 60.96484375 C50.24907146 60.95841682 53.62704744 60.95299259 57.00502777 60.94824982 C60.57571125 60.9429601 64.14637115 60.93588661 67.71704102 60.92456055 C71.81006097 60.91165824 75.9030558 60.90677094 79.99609375 60.90234375 C81.92418129 60.89460182 81.92418129 60.89460182 83.89122009 60.88670349 C85.07236893 60.88662796 86.25351776 60.88655243 87.47045898 60.88647461 C89.03932106 60.88314369 89.03932106 60.88314369 90.63987732 60.87974548 C93 61 93 61 94 62 C94 70.91 94 79.82 94 89 C74.2 89 54.4 89 34 89 C34 101.54 34 114.08 34 127 C39.04152344 126.98839844 44.08304688 126.97679687 49.27734375 126.96484375 C52.4628919 126.95973687 55.64843504 126.95492309 58.83398438 126.95117188 C63.89511152 126.94518389 68.95622064 126.93808479 74.01733398 126.92456055 C78.09568543 126.91373009 82.17401757 126.90772283 86.25238228 126.90512276 C87.81177639 126.90326879 89.3711694 126.89964873 90.93055534 126.89426994 C93.10729162 126.88705738 95.28394714 126.88600915 97.46069336 126.88647461 C99.32267616 126.88314369 99.32267616 126.88314369 101.22227478 126.87974548 C104 127 104 127 105 128 C105.09971786 129.91458282 105.13080589 131.83282317 105.1328125 133.75 C105.13410156 134.9153125 105.13539062 136.080625 105.13671875 137.28125 C105.13285156 138.5084375 105.12898438 139.735625 105.125 141 C105.12886719 142.2271875 105.13273437 143.454375 105.13671875 144.71875 C105.13542969 145.8840625 105.13414063 147.049375 105.1328125 148.25 C105.13168457 149.32765625 105.13055664 150.4053125 105.12939453 151.515625 C105 154 105 154 104 155 C102.6465941 155.09531163 101.28826016 155.1218872 99.9315033 155.12025452 C99.05688666 155.12163201 98.18227003 155.12300951 97.28114986 155.12442875 C96.31043828 155.12083064 95.3397267 155.11723253 94.33959961 155.11352539 C93.30861176 155.11364593 92.27762392 155.11376646 91.21539402 155.11389065 C87.86102237 155.11314119 84.50670553 155.10551147 81.15234375 155.09765625 C79.08825711 155.09618693 77.0241701 155.09516616 74.96008301 155.09460449 C67.28588301 155.08935043 59.61169097 155.07538936 51.9375 155.0625 C26.2284375 155.0315625 26.2284375 155.0315625 0 155 C0 103.85 0 52.7 0 0 Z " fill="#323232" transform="translate(924,176)"/>
<path d="M0 0 C8.03369747 -0.06842714 16.06715931 -0.12318476 24.10107231 -0.15543652 C27.83360706 -0.1709343 31.56592806 -0.19187201 35.29833984 -0.22631836 C84.92006033 -0.67206149 84.92006033 -0.67206149 100 13 C110.29135374 23.51867279 112.37557568 32.90364906 112.30004883 47.31298828 C112.0057951 60.04978094 108.05830011 69.40115732 98.8125 78.25 C94.01021664 82.33601059 88.79488611 84.64554233 83 87 C81.65997873 87.65311961 80.32394638 88.31488089 79 89 C83.73119022 96.92036289 88.49160374 104.82136948 93.3125 112.6875 C98.78692626 121.62323903 104.21041459 130.59030875 109.55322266 139.60546875 C110.58408163 141.31162211 111.64441559 143.00011256 112.72412109 144.67578125 C113.28309082 145.55621094 113.84206055 146.43664062 114.41796875 147.34375 C114.93512451 148.13974609 115.45228027 148.93574219 115.98510742 149.75585938 C117 152 117 152 116.66137695 154.29101562 C116.44312256 154.85498047 116.22486816 155.41894531 116 156 C111.49767666 156.07417023 106.99570909 156.1286105 102.49291992 156.16479492 C100.96128139 156.17987936 99.42968602 156.20034978 97.89819336 156.22631836 C95.69634346 156.26271847 93.49506467 156.27972913 91.29296875 156.29296875 C90.60849167 156.30845261 89.92401459 156.32393646 89.21879578 156.33988953 C84.49996925 156.34155909 84.49996925 156.34155909 82.21386719 154.77978516 C80.76220304 152.65133953 79.49697021 150.50588299 78.28515625 148.23046875 C77.76977295 147.26995605 77.25438965 146.30944336 76.72338867 145.31982422 C75.90124878 143.76932373 75.90124878 143.76932373 75.0625 142.1875 C73.89354096 140.00634329 72.72426297 137.82535749 71.5546875 135.64453125 C70.96268555 134.53674316 70.37068359 133.42895508 69.76074219 132.28759766 C67.0919655 127.304549 64.3929905 122.3381877 61.6875 117.375 C61.19548096 116.46991699 60.70346191 115.56483398 60.1965332 114.63232422 C57.99874346 110.60224149 55.78040395 106.58939453 53.47265625 102.62109375 C53.09343018 101.96898926 52.7142041 101.31688477 52.32348633 100.64501953 C51.33233758 98.95305626 50.33069787 97.26725028 49.328125 95.58203125 C48 93 48 93 48 90 C41.73 90 35.46 90 29 90 C29.495 90.99 29.495 90.99 30 92 C30.10145496 93.92428671 30.13840014 95.85210558 30.14526367 97.77905273 C30.15164352 98.99048447 30.15802338 100.2019162 30.16459656 101.45005798 C30.16570938 102.76462479 30.1668222 104.07919159 30.16796875 105.43359375 C30.17118109 106.79118383 30.17454515 108.14877357 30.17805481 109.50636292 C30.18404667 112.35361534 30.18589465 115.20083741 30.18530273 118.0480957 C30.18520109 121.69780835 30.19885485 125.34732653 30.21607494 128.99699306 C30.22718942 131.80138545 30.22922212 134.60573074 30.22869301 137.4101429 C30.23044843 139.41044173 30.24129256 141.41072586 30.25224304 143.41099548 C30.24916641 144.62557938 30.24608978 145.84016327 30.24291992 147.09155273 C30.24434494 148.16251694 30.24576996 149.23348114 30.24723816 150.3368988 C30 153 30 153 28 156 C25.31030273 156.35644531 25.31030273 156.35644531 21.93359375 156.328125 C20.72638672 156.32296875 19.51917969 156.3178125 18.27539062 156.3125 C17.00888672 156.291875 15.74238281 156.27125 14.4375 156.25 C12.53194336 156.24226563 12.53194336 156.24226563 10.58789062 156.234375 C1.15369778 156.15369778 1.15369778 156.15369778 0 155 C-0.09519368 152.2001028 -0.12553944 149.42493826 -0.11352539 146.62475586 C-0.11367142 145.74678848 -0.11381744 144.86882111 -0.1139679 143.96424866 C-0.11326844 141.04775565 -0.10547455 138.13132567 -0.09765625 135.21484375 C-0.09579218 133.19845108 -0.09436823 131.18205796 -0.09336853 129.16566467 C-0.08954244 123.84734862 -0.07971139 118.5290597 -0.06866455 113.21075439 C-0.05845238 107.78829312 -0.05387133 102.36582748 -0.04882812 96.94335938 C-0.0380892 86.29556097 -0.02101169 75.64778274 0 65 C0.64542755 64.99191315 1.2908551 64.98382629 1.95584106 64.97549438 C8.73815989 64.88872587 15.52021037 64.78920077 22.30224609 64.68261719 C24.82563736 64.64458421 27.34907812 64.60968906 29.87255859 64.578125 C54.74487059 65.59677652 54.74487059 65.59677652 77.3125 57.25 C81.2629537 51.9827284 81.31580321 46.56589024 80.4609375 40.296875 C79.83436811 37.17464789 79.16403947 35.37346265 77 33 C67.6820311 26.88105729 57.68016212 26.68246626 46.875 26.5859375 C45.51878724 26.56719639 44.16258578 26.54762086 42.80639648 26.5272522 C39.26213283 26.47623522 35.71783149 26.43644819 32.17340088 26.39910889 C28.54649774 26.35887673 24.91974719 26.30787273 21.29296875 26.2578125 C14.19541887 26.16141438 7.09778062 26.0778932 0 26 C0 17.42 0 8.84 0 0 Z " fill="#323232" transform="translate(538,176)"/>
<path d="M0 0 C7.92058436 -0.06839277 15.84093044 -0.12316564 23.76173306 -0.15543652 C27.44161078 -0.17094252 31.12127214 -0.19189626 34.80102539 -0.22631836 C83.32991822 -0.66808544 83.32991822 -0.66808544 98.5 12.3125 C108.03245118 21.67500472 111.37032691 31.97312721 112.0625 45.2109375 C111.86279094 57.31829925 109.19826975 69.57050873 100.875 78.75 C81.99629822 96.26247994 53.39785793 93 30 93 C30 114.12 30 135.24 30 157 C20.1 157 10.2 157 0 157 C0 127.3 0 97.6 0 67 C26.75 66.625 26.75 66.625 35.12011719 66.52197266 C37.34571458 66.48671849 39.57130147 66.45079201 41.796875 66.4140625 C42.92303223 66.40270264 44.04918945 66.39134277 45.20947266 66.37963867 C61.01565539 66.3492056 61.01565539 66.3492056 75 60 C78.71999773 54.64193509 79.70951199 49.38560795 79 43 C78.0080442 38.8261552 76.78075029 35.82536459 73.8125 32.6875 C66.66210496 28.39726298 59.39511878 26.92392407 51.08642578 26.79467773 C49.94569611 26.77473251 48.80496643 26.75478729 47.62966919 26.73423767 C46.41383148 26.71752518 45.19799377 26.70081268 43.9453125 26.68359375 C42.68862762 26.66281265 41.43194275 26.64203156 40.13717651 26.62062073 C36.81314299 26.56645388 33.48909743 26.51616207 30.16497803 26.46777344 C26.76618292 26.41733505 23.36747098 26.36181534 19.96875 26.30664062 C13.31256471 26.19895509 6.65632892 26.09969645 0 26 C0 17.42 0 8.84 0 0 Z " fill="#323232" transform="translate(427,174)"/>
<path d="M0 0 C6.27 0 12.54 0 19 0 C19.495 19.8 19.495 19.8 20 40 C21.98 37.69 23.96 35.38 26 33 C26.66 33 27.32 33 28 33 C28 32.34 28 31.68 28 31 C29.63910864 29.30622362 31.31194439 27.64499964 33 26 C34.31128252 24.49465613 35.62202234 22.9887471 36.91752625 21.46980286 C55.55160227 -0.20840912 55.55160227 -0.20840912 66.05078125 -1.70703125 C71.80523969 -1.89614884 77.39259381 -1.29213478 83 0 C83.495 0.99 83.495 0.99 84 2 C80.17192003 6.70422503 76.07808347 10.91827779 71.5625 14.96875 C64.73491654 21.15496364 58.2380181 27.64901742 51.75 34.1875 C50.60049954 35.34203501 49.45076096 36.49633298 48.30078125 37.65039062 C45.53111674 40.43088409 42.76464098 43.21451196 40 46 C41.84764628 50.02751409 44.52740063 52.71329682 47.6875 55.75 C51.76755947 59.74278547 55.65674967 63.79093893 59.359375 68.140625 C61.16147789 70.18300828 63.05938947 72.08901711 65 74 C68.88742392 77.83529371 72.4249355 81.87018411 76 86 C79.3 89.63 82.6 93.26 86 97 C86.33 64.99 86.66 32.98 87 0 C93.27 0 99.54 0 106 0 C106 33.33 106 66.66 106 101 C62 101 62 101 56 96 C54.6401454 94.43577418 53.32711065 92.82968356 52.0625 91.1875 C48.10178427 86.22152647 43.87725985 81.60135906 39.5 77 C34.32262289 71.55162006 29.39648021 66.03663096 24.734375 60.13671875 C23.23897424 58.29441195 21.68965268 56.65912036 20 55 C19.9845388 55.84231422 19.9845388 55.84231422 19.96876526 56.7016449 C19.86092315 62.52493466 19.74630792 68.34806264 19.62768555 74.17114258 C19.58426493 76.34688953 19.54259529 78.52267214 19.50268555 80.69848633 C19.44515498 83.81863168 19.38141177 86.93859633 19.31640625 90.05859375 C19.29969376 91.03775253 19.28298126 92.01691132 19.26576233 93.02574158 C19.24581711 93.92659988 19.22587189 94.82745819 19.20532227 95.75561523 C19.18977798 96.55281479 19.1742337 97.35001434 19.15821838 98.17137146 C19 100 19 100 18 101 C15.17743509 101.10007008 12.3847681 101.13875598 9.5625 101.125 C8.77294922 101.12886719 7.98339844 101.13273437 7.16992188 101.13671875 C1.25326133 101.12663067 1.25326133 101.12663067 -1 100 C-1.0231211 87.10927745 -1.04091389 74.2185598 -1.05181217 61.32782078 C-1.05704151 55.34280734 -1.06414008 49.35780804 -1.07543945 43.37280273 C-1.08626653 37.60216571 -1.09227645 31.83154232 -1.09487724 26.06089592 C-1.09673182 23.85397057 -1.10035304 21.647046 -1.10573006 19.44012642 C-1.1129381 16.36053959 -1.11399104 13.28100986 -1.11352539 10.20141602 C-1.11712067 9.27928818 -1.12071594 8.35716034 -1.12442017 7.40708923 C-1.11405216 1.11405216 -1.11405216 1.11405216 0 0 Z " fill="#323232" transform="translate(970,69)"/>
<path d="M0 0 C4.1117256 -0.02465746 8.22342278 -0.04283959 12.33520508 -0.05493164 C13.73495228 -0.0599708 15.1346942 -0.06680216 16.53442383 -0.07543945 C18.54245777 -0.0875232 20.55052957 -0.09269807 22.55859375 -0.09765625 C24.37315063 -0.10551147 24.37315063 -0.10551147 26.22436523 -0.11352539 C29 0 29 0 30 1 C30.09979212 2.39784211 30.13074773 3.80067561 30.13371277 5.20207214 C30.14011024 6.5621212 30.14011024 6.5621212 30.14663696 7.949646 C30.14595718 9.454133 30.14595718 9.454133 30.14526367 10.98901367 C30.14862228 12.03956436 30.1519809 13.09011505 30.15544128 14.17250061 C30.16499403 17.67100182 30.16689736 21.16945528 30.16796875 24.66796875 C30.17118122 27.09922811 30.17454528 29.53048727 30.17805481 31.96174622 C30.18405888 37.07565762 30.18589369 42.18955211 30.18530273 47.3034668 C30.1852017 53.82746185 30.19878754 60.35134662 30.21607494 66.87531567 C30.2272538 71.90709419 30.22922005 76.9388467 30.22869301 81.97063637 C30.22986682 84.37335905 30.23425468 86.77608255 30.24202538 89.17879295 C30.36594708 131.49966129 30.36594708 131.49966129 18.01953125 144.22265625 C9.83194852 151.42836252 1.4805136 156.16474248 -9.4375 157.3125 C-10.21665771 157.39516113 -10.99581543 157.47782227 -11.79858398 157.56298828 C-26.24353304 158.84652894 -39.44840784 156.44562086 -50.859375 147.109375 C-57.24975347 140.81228672 -61.35309766 132.79916394 -63 124 C-63 122.68 -63 121.36 -63 120 C-53.69393547 117.65439171 -44.63401065 115.41615597 -35 115 C-34.84144531 115.60328125 -34.68289063 116.2065625 -34.51953125 116.828125 C-33.00807477 122.00548973 -31.82894656 125.10263207 -27 128 C-20.9434615 130.01884617 -14.24153589 130.02245497 -8.4375 127.375 C-2.31628863 121.41074277 -0.97677869 113.00524707 -0.7215271 104.74168396 C-0.69827486 102.7880864 -0.68538877 100.83434657 -0.68115234 98.88061523 C-0.66608391 97.26930473 -0.66608391 97.26930473 -0.65071106 95.6254425 C-0.62001812 92.10316463 -0.60288254 88.58096228 -0.5859375 85.05859375 C-0.56721469 82.60522315 -0.54764046 80.15185891 -0.5272522 77.69850159 C-0.47604271 71.26243857 -0.43635713 64.8263547 -0.39910889 58.39019775 C-0.35899906 51.8141163 -0.30793859 45.23812076 -0.2578125 38.66210938 C-0.16118564 25.7748011 -0.07636631 12.88744345 0 0 Z " fill="#323232" transform="translate(878,177)"/>
<path d="M0 0 C3.14581423 -0.02888514 6.29159469 -0.04675923 9.4375 -0.0625 C10.33533203 -0.07087891 11.23316406 -0.07925781 12.15820312 -0.08789062 C13.01220703 -0.09111328 13.86621094 -0.09433594 14.74609375 -0.09765625 C15.93223267 -0.10551147 15.93223267 -0.10551147 17.14233398 -0.11352539 C19 0 19 0 20 1 C20.12380838 3.05478453 20.17798203 5.1137896 20.20532227 7.17211914 C20.21522186 7.81600082 20.22512146 8.45988251 20.23532104 9.12327576 C20.26701528 11.26053131 20.29172449 13.39780913 20.31640625 15.53515625 C20.33696896 17.01346936 20.35796524 18.49177649 20.37937927 19.97007751 C20.43467059 23.86792171 20.48404857 27.76581958 20.53222656 31.66375732 C20.58239019 35.63851723 20.63810301 39.61319884 20.69335938 43.58789062 C20.80102724 51.39186085 20.90245287 59.19589602 21 67 C23.25475257 63.6242624 25.50833755 60.24774689 27.76171875 56.87109375 C28.39750854 55.91924194 29.03329834 54.96739014 29.68835449 53.98669434 C33.87744 47.70783414 37.97966454 41.38808111 42 35 C47.81433561 25.87105261 53.74108549 16.82411848 59.77075195 7.8359375 C61.17766685 5.86019441 61.17766685 5.86019441 62.34448242 2.8125 C65.52805367 -0.55926986 66.37628816 -0.43997544 70.859375 -0.5859375 C73.15698053 -0.54609463 75.45420832 -0.47459497 77.75 -0.375 C79.51150391 -0.33439453 79.51150391 -0.33439453 81.30859375 -0.29296875 C84.2075816 -0.22226173 87.1028647 -0.12361956 90 0 C90.023121 13.0211064 90.04091384 26.04220795 90.05181217 39.06333065 C90.05704153 45.10887817 90.06414014 51.1544117 90.07543945 57.19995117 C90.08626645 63.02894288 90.09227643 68.85792109 90.09487724 74.68692207 C90.09673183 76.9161761 90.10035308 79.14542935 90.10573006 81.37467766 C90.11293799 84.48539734 90.11399105 87.59606049 90.11352539 90.70678711 C90.11712067 91.63826569 90.12071594 92.56974426 90.12442017 93.52944946 C90.11405216 99.88594784 90.11405216 99.88594784 89 101 C87.66956375 101.0983721 86.33406656 101.13078592 85 101.1328125 C84.195625 101.13410156 83.39125 101.13539063 82.5625 101.13671875 C81.716875 101.13285156 80.87125 101.12898438 80 101.125 C79.154375 101.12886719 78.30875 101.13273437 77.4375 101.13671875 C76.633125 101.13542969 75.82875 101.13414062 75 101.1328125 C74.2575 101.13168457 73.515 101.13055664 72.75 101.12939453 C71 101 71 101 70 100 C69.87603129 97.85331715 69.8219928 95.70257613 69.79467773 93.55249023 C69.78477814 92.87934784 69.77487854 92.20620544 69.76467896 91.51266479 C69.73298162 89.27801075 69.70827426 87.04333542 69.68359375 84.80859375 C69.66303131 83.26302016 69.64203504 81.71745228 69.62062073 80.17189026 C69.56532663 76.09649268 69.51594987 72.02104375 69.46777344 67.94555664 C69.41761183 63.7898296 69.36189796 59.63417748 69.30664062 55.47851562 C69.19896936 47.3190737 69.09754448 39.15956924 69 31 C66.95563409 34.14446944 64.91140019 37.28902469 62.8671875 40.43359375 C62.29637451 41.31156616 61.72556152 42.18953857 61.13745117 43.09411621 C51.26317372 58.26128869 51.26317372 58.26128869 41.5 73.5 C38.45023122 78.29987823 35.38789292 83.09150627 32.3125 87.875 C31.8484375 88.60138672 31.384375 89.32777344 30.90625 90.07617188 C30.0203081 91.45104137 29.12031932 92.81698666 28.20483398 94.17236328 C27.17992857 95.72706276 26.26096822 97.35076623 25.3671875 98.984375 C21.38931409 102.37147513 16.83964944 101.56083471 11.8125 101.375 C10.27819336 101.35373047 10.27819336 101.35373047 8.71289062 101.33203125 C1.18211535 101.18211535 1.18211535 101.18211535 0 100 C-0.09533653 96.8949275 -0.12551126 93.81213542 -0.11352539 90.70678711 C-0.11367142 89.73128403 -0.11381744 88.75578094 -0.1139679 87.75071716 C-0.11326833 84.50957047 -0.10547391 81.26848046 -0.09765625 78.02734375 C-0.09579222 75.78674857 -0.09436825 73.54615298 -0.09336853 71.30555725 C-0.08954213 65.3954049 -0.0797108 59.48527695 -0.06866455 53.57513428 C-0.05845306 47.54944183 -0.05387147 41.52374547 -0.04882812 35.49804688 C-0.03808864 23.66535384 -0.02101076 11.83267894 0 0 Z " fill="#323232" transform="translate(1089,69)"/>
<path d="M0 0 C5.87146998 -0.14867376 11.74183713 -0.25737011 17.61474609 -0.32958984 C19.61103407 -0.35970416 21.60719035 -0.40060555 23.60302734 -0.45263672 C26.47786984 -0.52568952 29.35095901 -0.55950922 32.2265625 -0.5859375 C33.11429352 -0.61690521 34.00202454 -0.64787292 34.91665649 -0.67977905 C39.44175813 -0.68221916 42.19083575 -0.38392603 45.56494141 2.7878418 C48.72659351 6.26034506 48.82519494 9.65491607 48.75 14.1875 C48.6590103 19.88161482 48.6590103 19.88161482 51 25 C53.98119975 25.45561664 53.98119975 25.45561664 57.56028748 25.3742218 C58.58260557 25.38018341 58.58260557 25.38018341 59.62557656 25.38626546 C61.92043399 25.39592729 64.21468087 25.38404747 66.50952148 25.37231445 C68.15025056 25.37474117 69.79097816 25.37845932 71.43170166 25.38337708 C75.89659679 25.39280694 80.3612735 25.38334276 84.82615161 25.37004495 C89.4919354 25.35875386 94.15770807 25.36283619 98.82350159 25.36479187 C106.66109803 25.36567568 114.49860813 25.3545771 122.33618164 25.33618164 C131.40434569 25.31502006 140.47238312 25.31150206 149.54056686 25.3177436 C158.25334502 25.32343409 166.96607846 25.31779483 175.67885017 25.30657005 C179.39131558 25.30191914 183.1037537 25.30105235 186.81622124 25.3031559 C191.18694129 25.30503655 195.55753208 25.29695212 199.92822266 25.2810955 C201.53467842 25.27684486 203.14114729 25.27600733 204.74760628 25.27878571 C206.93612338 25.28199708 209.12425176 25.27295239 211.31272888 25.26069641 C213.1519575 25.25761711 213.1519575 25.25761711 215.02834225 25.25447559 C218.18513088 25.22446323 218.18513088 25.22446323 221 23 C221.32108829 19.46056164 221.38808715 16.02163472 221.3515625 12.47265625 C221.36703125 11.73402344 221.3825 10.99539063 221.3984375 10.234375 C221.39336182 9.23229004 221.39336182 9.23229004 221.38818359 8.20996094 C222.3662211 4.67716145 224.07454786 2.14166623 227 0 C230.16806691 -0.80873075 233.20487057 -0.70156303 236.45703125 -0.5859375 C237.81147591 -0.57320297 237.81147591 -0.57320297 239.19328308 -0.56021118 C242.06758692 -0.52671545 244.93904933 -0.45144586 247.8125 -0.375 C249.76493334 -0.34489533 251.71741081 -0.3175204 253.66992188 -0.29296875 C258.44770364 -0.22693687 263.22337069 -0.12344347 268 0 C266.98174587 4.7711584 265.96412613 9.48885915 264.4140625 14.12109375 C264.12273437 14.99443359 263.83140625 15.86777344 263.53125 16.76757812 C263.2321875 17.64865234 262.933125 18.52972656 262.625 19.4375 C262.33367187 20.31470703 262.04234375 21.19191406 261.7421875 22.09570312 C259.69799493 28.17896918 257.39521073 34.01197318 255 40 C175.14 40 95.28 40 13 40 C9.42621443 31.06553608 5.97358513 22.39136864 3.125 13.25 C2.81820312 12.29351562 2.51140625 11.33703125 2.1953125 10.3515625 C0 3.39320592 0 3.39320592 0 0 Z " fill="#343434" transform="translate(60,313)"/>
<path d="M0 0 C1.58325073 0.01353516 1.58325073 0.01353516 3.19848633 0.02734375 C17.37187991 0.34068814 27.65322357 4.50083573 39.25 12.4375 C37.61202124 16.2716514 35.16929595 19.12502203 32.4375 22.25 C31.58542969 23.24644531 30.73335937 24.24289063 29.85546875 25.26953125 C27.25 27.4375 27.25 27.4375 24.6640625 27.4140625 C22.33228578 26.47078713 20.4844186 25.45223488 18.4375 24 C10.65463853 18.9946653 2.30963549 18.5838241 -6.75 19.4375 C-13.73476139 21.01963385 -20.2217445 23.72354169 -24.75 29.4375 C-30.93434598 39.89900136 -33.34974288 48.98817131 -31.2890625 61.16015625 C-29.0144427 69.60300975 -25.37793718 77.20047855 -17.8125 81.9375 C-6.60576409 87.83227639 3.83972159 87.4544654 15.8515625 84.19140625 C18.23074255 83.51313876 18.23074255 83.51313876 20.25 82.4375 C20.58 75.5075 20.91 68.5775 21.25 61.4375 C14.65 61.4375 8.05 61.4375 1.25 61.4375 C1.25 55.4975 1.25 49.5575 1.25 43.4375 C14.12 43.4375 26.99 43.4375 40.25 43.4375 C40.25 60.9275 40.25 78.4175 40.25 96.4375 C21.03194955 104.12472018 -0.463726 110.43055062 -20.89453125 102.765625 C-36.35002443 95.57702352 -45.65993953 86.36625358 -51.921875 70.4609375 C-56.52024066 54.71370417 -54.11803431 38.67406225 -46.5234375 24.35546875 C-39.14986174 12.2231756 -27.99743546 4.84407157 -14.46069336 1.01098633 C-9.64954915 -0.00688071 -4.90197606 -0.05025654 0 0 Z " fill="#323232" transform="translate(1239.75,66.5625)"/>
<path d="M0 0 C6.27 0 12.54 0 19 0 C19 12.87 19 25.74 19 39 C33.52 39 48.04 39 63 39 C63 26.13 63 13.26 63 0 C69.27 0 75.54 0 82 0 C83.93006245 1.93006245 83.12683226 4.82723129 83.13552856 7.39598083 C83.13249222 8.77681602 83.13249222 8.77681602 83.12939453 10.18554688 C83.13202301 11.6317617 83.13202301 11.6317617 83.13470459 13.10719299 C83.13912493 16.31106336 83.13618447 19.51487902 83.1328125 22.71875 C83.13348549 24.93452973 83.13445547 27.15030939 83.13571167 29.36608887 C83.13718889 34.01669007 83.13503331 38.66727211 83.13037109 43.31787109 C83.1246738 49.29382604 83.12795267 55.26973609 83.13394356 61.24568939 C83.13754852 65.82314394 83.13641088 70.40058775 83.13381577 74.9780426 C83.13314632 77.18217474 83.13397554 79.38630783 83.13629532 81.59043884 C83.13882078 84.66513672 83.13498275 87.73976078 83.12939453 90.81445312 C83.13141876 91.73500992 83.13344299 92.65556671 83.13552856 93.60401917 C83.11426228 99.88573772 83.11426228 99.88573772 82 101 C80.66956375 101.0983721 79.33406656 101.13078592 78 101.1328125 C77.195625 101.13410156 76.39125 101.13539063 75.5625 101.13671875 C74.716875 101.13285156 73.87125 101.12898438 73 101.125 C72.154375 101.12886719 71.30875 101.13273437 70.4375 101.13671875 C69.633125 101.13542969 68.82875 101.13414062 68 101.1328125 C67.2575 101.13168457 66.515 101.13055664 65.75 101.12939453 C64 101 64 101 63 100 C62.91126468 96.89769856 62.88474313 93.81712641 62.90234375 90.71484375 C62.90335083 89.8902063 62.90435791 89.06556885 62.90539551 88.21594238 C62.91064408 85.12311419 62.92460523 82.03030576 62.9375 78.9375 C62.9684375 68.5734375 62.9684375 68.5734375 63 58 C48.81 58 34.62 58 20 58 C19.67 72.19 19.34 86.38 19 101 C13.06 101 7.12 101 1 101 C-0.94297324 99.05702676 -0.12020298 96.11495819 -0.12442017 93.52944946 C-0.12082489 92.59797089 -0.11722961 91.66649231 -0.11352539 90.70678711 C-0.11367142 89.73128403 -0.11381744 88.75578094 -0.1139679 87.75071716 C-0.11326833 84.50957047 -0.10547391 81.26848046 -0.09765625 78.02734375 C-0.09579222 75.78674857 -0.09436825 73.54615298 -0.09336853 71.30555725 C-0.08954213 65.3954049 -0.0797108 59.48527695 -0.06866455 53.57513428 C-0.05845306 47.54944183 -0.05387147 41.52374547 -0.04882812 35.49804688 C-0.03808864 23.66535211 -0.02049086 11.8326819 0 0 Z " fill="#323232" transform="translate(480,69)"/>
<path d="M0 0 C6.27 0 12.54 0 19 0 C19 12.87 19 25.74 19 39 C33.52 39 48.04 39 63 39 C63 26.13 63 13.26 63 0 C69.27 0 75.54 0 82 0 C83.93006245 1.93006245 83.12683226 4.82723129 83.13552856 7.39598083 C83.13249222 8.77681602 83.13249222 8.77681602 83.12939453 10.18554688 C83.13202301 11.6317617 83.13202301 11.6317617 83.13470459 13.10719299 C83.13912493 16.31106336 83.13618447 19.51487902 83.1328125 22.71875 C83.13348549 24.93452973 83.13445547 27.15030939 83.13571167 29.36608887 C83.13718889 34.01669007 83.13503331 38.66727211 83.13037109 43.31787109 C83.1246738 49.29382604 83.12795267 55.26973609 83.13394356 61.24568939 C83.13754852 65.82314394 83.13641088 70.40058775 83.13381577 74.9780426 C83.13314632 77.18217474 83.13397554 79.38630783 83.13629532 81.59043884 C83.13882078 84.66513672 83.13498275 87.73976078 83.12939453 90.81445312 C83.13141876 91.73500992 83.13344299 92.65556671 83.13552856 93.60401917 C83.11426228 99.88573772 83.11426228 99.88573772 82 101 C80.66956375 101.0983721 79.33406656 101.13078592 78 101.1328125 C77.195625 101.13410156 76.39125 101.13539063 75.5625 101.13671875 C74.716875 101.13285156 73.87125 101.12898438 73 101.125 C72.154375 101.12886719 71.30875 101.13273437 70.4375 101.13671875 C69.633125 101.13542969 68.82875 101.13414062 68 101.1328125 C67.2575 101.13168457 66.515 101.13055664 65.75 101.12939453 C64 101 64 101 63 100 C62.83959844 96.89934814 62.74029098 93.81794283 62.68359375 90.71484375 C62.66494263 89.8902063 62.6462915 89.06556885 62.6270752 88.21594238 C62.55856286 85.12324154 62.49855149 82.03035712 62.4375 78.9375 C62.293125 72.028125 62.14875 65.11875 62 58 C48.14 58 34.28 58 20 58 C19.67 72.19 19.34 86.38 19 101 C13.06 101 7.12 101 1 101 C-0.94297324 99.05702676 -0.12020298 96.11495819 -0.12442017 93.52944946 C-0.12082489 92.59797089 -0.11722961 91.66649231 -0.11352539 90.70678711 C-0.11367142 89.73128403 -0.11381744 88.75578094 -0.1139679 87.75071716 C-0.11326833 84.50957047 -0.10547391 81.26848046 -0.09765625 78.02734375 C-0.09579222 75.78674857 -0.09436825 73.54615298 -0.09336853 71.30555725 C-0.08954213 65.3954049 -0.0797108 59.48527695 -0.06866455 53.57513428 C-0.05845306 47.54944183 -0.05387147 41.52374547 -0.04882812 35.49804688 C-0.03808864 23.66535211 -0.02049086 11.8326819 0 0 Z " fill="#323232" transform="translate(700,69)"/>
<path d="M0 0 C22.44 0 44.88 0 68 0 C68 6.27 68 12.54 68 19 C53.15 19 38.3 19 23 19 C23 25.93 23 32.86 23 40 C35.87 40 48.74 40 62 40 C62 45.61 62 51.22 62 57 C61 58 61 58 57.39819336 58.11352539 C55.79540144 58.11336625 54.1926044 58.10767063 52.58984375 58.09765625 C51.74780899 58.0962413 50.90577423 58.09482635 50.03822327 58.09336853 C47.33794665 58.08775263 44.63775172 58.07519748 41.9375 58.0625 C40.11132932 58.05748705 38.28515734 58.05292379 36.45898438 58.04882812 C31.97259915 58.03862716 27.48639145 58.01905499 23 58 C23 65.92 23 73.84 23 82 C37.85 82 52.7 82 68 82 C68 87.94 68 93.88 68 100 C66.17443883 101.82556117 63.29461397 101.12772403 60.84375 101.12939453 C59.52568359 101.13254669 58.20761719 101.13569885 56.84960938 101.13894653 C55.39973925 101.13715675 53.94986942 101.1351058 52.5 101.1328125 C51.02408838 101.13348557 49.54817687 101.13445563 48.07226562 101.13571167 C44.97524971 101.13718848 41.87826258 101.13503464 38.78125 101.13037109 C34.80291451 101.1246738 30.82464648 101.1279529 26.84631348 101.13394356 C23.79752083 101.13754963 20.74874429 101.13641037 17.69995117 101.13381577 C16.23266594 101.13314662 14.76537926 101.13397447 13.2980957 101.13629532 C11.25081407 101.13882257 9.20352734 101.1342906 7.15625 101.12939453 C5.40538086 101.12820114 5.40538086 101.12820114 3.61914062 101.12698364 C1 101 1 101 0 100 C-0.09533653 96.8949275 -0.12551126 93.81213542 -0.11352539 90.70678711 C-0.11367142 89.73128403 -0.11381744 88.75578094 -0.1139679 87.75071716 C-0.11326833 84.50957047 -0.10547391 81.26848046 -0.09765625 78.02734375 C-0.09579222 75.78674857 -0.09436825 73.54615298 -0.09336853 71.30555725 C-0.08954213 65.3954049 -0.0797108 59.48527695 -0.06866455 53.57513428 C-0.0566591 46.49084731 -0.05204877 39.40655221 -0.04621124 32.322258 C-0.03649911 21.548155 -0.0173434 10.7741056 0 0 Z " fill="#323232" transform="translate(573,69)"/>
<path d="M0 0 C3.34450255 1.99559286 6.40539145 4.13873932 9.48046875 6.52734375 C10.36476563 7.20152344 11.2490625 7.87570313 12.16015625 8.5703125 C21.58592168 16.39575327 28.04513571 26.80034459 34.16796875 37.27734375 C34.51939941 37.87377686 34.87083008 38.47020996 35.23291016 39.0847168 C36.04881428 40.52990644 36.7741224 42.02556231 37.48046875 43.52734375 C36.98546875 44.51734375 36.98546875 44.51734375 36.48046875 45.52734375 C35.49046875 44.25890625 35.49046875 44.25890625 34.48046875 42.96484375 C32.40720468 40.46894114 30.21548544 38.35950679 27.7409668 36.26318359 C23.72965074 32.79340235 20.00597979 29.11904085 16.3125 25.31640625 C14.99457942 23.97613088 13.6762071 22.6362996 12.35742188 21.296875 C10.31210607 19.21429086 8.27008997 17.12880524 6.2355957 15.03564453 C4.24944658 12.99512265 2.25091456 10.96743715 0.25 8.94140625 C-0.65796577 7.99776718 -0.65796577 7.99776718 -1.58427429 7.0350647 C-5.78021107 2.8132118 -5.78021107 2.8132118 -11.51953125 1.52734375 C-10.14096307 6.03902142 -8.20510991 7.69887641 -4.51953125 10.52734375 C-3.32206312 11.98372391 -2.12570385 13.44111653 -0.94512939 14.91122437 C0.62132766 16.68702746 2.29667048 18.16639138 4.10253906 19.69775391 C11.283878 25.90941844 17.93735922 32.68219735 24.67236328 39.36914062 C26.37960091 41.05975884 28.0921945 42.74498529 29.81005859 44.42480469 C32.3114906 46.8713074 34.79591938 49.33400663 37.27734375 51.80078125 C38.04093201 52.54170013 38.80452026 53.28261902 39.59124756 54.04598999 C44.25132307 58.72465011 49.48046875 64.5038498 49.48046875 71.52734375 C46.23485575 70.10660051 44.11785285 68.38971694 41.65234375 65.859375 C40.57533203 64.76592773 40.57533203 64.76592773 39.4765625 63.65039062 C38.73535156 62.88791016 37.99414062 62.12542969 37.23046875 61.33984375 C31.21742329 55.16017243 31.21742329 55.16017243 24.828125 49.37890625 C20.91118286 46.01675945 17.30082763 42.39219502 13.6796875 38.71875 C12.76804337 37.79528526 12.76804337 37.79528526 11.83798218 36.85316467 C9.29701361 34.27558925 6.75911639 31.69514259 4.23022461 29.10571289 C2.36585392 27.1992229 0.49233367 25.30213416 -1.3828125 23.40625 C-2.24064079 22.52049034 -2.24064079 22.52049034 -3.11579895 21.61683655 C-4.52773552 20.19577569 -6.01817784 18.85358535 -7.51953125 17.52734375 C-8.50953125 17.52734375 -9.49953125 17.52734375 -10.51953125 17.52734375 C-10.84953125 18.84734375 -11.17953125 20.16734375 -11.51953125 21.52734375 C-10.94841614 21.77346909 -10.37730103 22.01959442 -9.78887939 22.2731781 C-7.1379833 23.73820797 -5.34995765 25.44986103 -3.20996094 27.59399414 C-2.36939148 28.43148697 -1.52882202 29.2689798 -0.66278076 30.1318512 C0.68429962 31.48970985 0.68429962 31.48970985 2.05859375 32.875 C2.98516785 33.80203232 3.91174194 34.72906464 4.86639404 35.68418884 C6.82290042 37.64225634 8.77600923 39.60362946 10.7265625 41.56762695 C13.23232505 44.09043759 15.74467927 46.6065562 18.25935745 49.12047672 C20.65357267 51.51502827 23.04352464 53.91380978 25.43359375 56.3125 C26.33974426 57.21976334 27.24589478 58.12702667 28.17950439 59.06178284 C29.00746521 59.8961235 29.83542603 60.73046417 30.68847656 61.59008789 C31.42253723 62.32796036 32.1565979 63.06583282 32.91290283 63.82606506 C34.48046875 65.52734375 34.48046875 65.52734375 34.48046875 66.52734375 C26.02272227 66.79962533 26.02272227 66.79962533 22.5390625 63.92578125 C20.85546875 61.90234375 20.85546875 61.90234375 19.44140625 59.92578125 C17.11639485 57.08204221 14.48103248 54.87813706 11.69628906 52.49414062 C7.01302213 48.33719942 2.73562379 43.7392805 -1.60351562 39.22851562 C-2.32474609 38.49310547 -3.04597656 37.75769531 -3.7890625 37 C-4.43464111 36.33234619 -5.08021973 35.66469238 -5.74536133 34.97680664 C-7.52490653 33.21100348 -7.52490653 33.21100348 -10.51953125 33.52734375 C-10.84953125 34.84734375 -11.17953125 36.16734375 -11.51953125 37.52734375 C-10.97135742 37.750271 -10.42318359 37.97319824 -9.85839844 38.20288086 C-6.80953886 39.92940103 -4.53587292 42.24421914 -2.09765625 44.71875 C-1.34038239 45.4767112 -1.34038239 45.4767112 -0.56781006 46.24998474 C0.49346747 47.31427364 1.5523233 48.38098224 2.60888672 49.44995117 C4.233502 51.09291125 5.86606653 52.72763992 7.5 54.36132812 C8.53042274 55.39666307 9.5603871 56.43245445 10.58984375 57.46875 C11.08039246 57.96041153 11.57094116 58.45207306 12.07635498 58.95863342 C15.48046875 62.41127125 15.48046875 62.41127125 15.48046875 63.52734375 C7.49113691 64.31061158 7.49113691 64.31061158 3.98046875 61.58984375 C3.15546875 60.57921875 2.33046875 59.56859375 1.48046875 58.52734375 C-0.04320045 56.90607296 -1.58640613 55.30302916 -3.14453125 53.71484375 C-3.89992188 52.92464844 -4.6553125 52.13445312 -5.43359375 51.3203125 C-7.44027257 49.20142209 -7.44027257 49.20142209 -10.51953125 49.52734375 C-9.95290696 53.15054696 -8.62866124 54.70200028 -5.95703125 57.15234375 C-4.7761813 58.24053143 -3.62142789 59.35927577 -2.51953125 60.52734375 C-2.51953125 61.18734375 -2.51953125 61.84734375 -2.51953125 62.52734375 C-3.42380859 62.53668945 -4.32808594 62.54603516 -5.25976562 62.55566406 C-36.98939172 62.77809945 -36.98939172 62.77809945 -67.72241211 69.94580078 C-69.51953125 70.52734375 -69.51953125 70.52734375 -71.51953125 70.52734375 C-71.13194222 65.48868636 -69.31432938 62.16976005 -66.82421875 57.9140625 C-65.59427343 55.6640727 -64.70215428 53.49718413 -63.83203125 51.08984375 C-55.83271253 30.51559599 -41.7303157 9.05087153 -21.2578125 -0.53125 C-14.34903426 -2.90645051 -6.70583707 -2.80588299 0 0 Z " fill="#393939" transform="translate(206.51953125,64.47265625)"/>
<path d="M0 0 C4.05533589 2.69195401 7.51228754 5.1010284 10.16796875 9.25 C10.16796875 9.91 10.16796875 10.57 10.16796875 11.25 C8.13916486 12.92235225 6.13036894 14.43697635 3.98046875 15.9375 C3.40232422 16.36611328 2.82417969 16.79472656 2.22851562 17.23632812 C-0.40712977 19.0857471 -2.19925167 20.26031196 -5.46875 20.20703125 C-8.07729828 19.15067699 -10.16786429 17.88624305 -12.45703125 16.25 C-18.78234047 11.7596781 -24.22299085 11.7376706 -31.83203125 12.25 C-39.78635633 13.71200991 -46.10595096 17.8608191 -51.14453125 24.125 C-56.57784519 34.18669249 -58.37699403 44.69514888 -55.578125 55.890625 C-52.97811095 64.11265896 -49.188419 70.53340445 -41.83203125 75.25 C-33.71129083 79.3468406 -25.4381931 80.94911832 -16.64453125 78.125 C-11.99709506 76.15078422 -7.13012886 72.84619521 -4.83203125 68.25 C-1.14001492 68.87532991 1.22383715 70.50621825 4.23046875 72.6875 C5.08769531 73.30496094 5.94492187 73.92242187 6.828125 74.55859375 C7.60027344 75.11675781 8.37242187 75.67492187 9.16796875 76.25 C10.65296875 77.24 10.65296875 77.24 12.16796875 78.25 C11.11576843 84.19947838 6.54754916 87.53893048 1.83203125 90.9296875 C-10.92833946 99.02064811 -24.9202334 100.21879533 -39.6640625 97.55859375 C-53.5028654 93.63513718 -64.86487422 85.55193645 -72.29296875 73.22265625 C-75.83529391 66.38075411 -78.27166733 58.95500396 -78.83203125 51.25 C-78.89519531 50.48945312 -78.95835937 49.72890625 -79.0234375 48.9453125 C-79.69276583 34.39281908 -74.66911518 20.31311479 -65.64453125 9 C-49.06468217 -8.82151178 -20.39785689 -12.60446881 0 0 Z " fill="#323232" transform="translate(954.83203125,73.75)"/>
<path d="M0 0 C26.07 0 52.14 0 79 0 C79 5.94 79 11.88 79 18 C78 19 78 19 75.31616211 19.11352539 C74.14835205 19.10828857 72.98054199 19.10305176 71.77734375 19.09765625 C70.51728516 19.09443359 69.25722656 19.09121094 67.95898438 19.08789062 C66.61848891 19.07953403 65.27799412 19.07106907 63.9375 19.0625 C62.59310058 19.0574866 61.2486994 19.05292342 59.90429688 19.04882812 C56.60282059 19.03699488 53.30143197 19.02050971 50 19 C49.98969254 20.01255356 49.97938507 21.02510712 49.96876526 22.06834412 C49.87120265 31.58944004 49.76848529 41.1104681 49.66066074 50.63145351 C49.60538835 55.52682125 49.55196159 60.4221949 49.50268555 65.31762695 C49.45510549 70.03793276 49.40276525 74.75816354 49.34705925 79.4783802 C49.32660678 81.28336797 49.30789859 83.08837635 49.29092598 84.89340019 C49.26694571 87.41265216 49.23688289 89.93176098 49.20532227 92.45092773 C49.1995668 93.20474228 49.19381134 93.95855682 49.18788147 94.73521423 C49.11405216 99.88594784 49.11405216 99.88594784 48 101 C46.66956375 101.0983721 45.33406656 101.13078592 44 101.1328125 C43.195625 101.13410156 42.39125 101.13539063 41.5625 101.13671875 C40.716875 101.13285156 39.87125 101.12898438 39 101.125 C38.154375 101.12886719 37.30875 101.13273437 36.4375 101.13671875 C35.633125 101.13542969 34.82875 101.13414062 34 101.1328125 C33.2575 101.13168457 32.515 101.13055664 31.75 101.12939453 C30 101 30 101 29 100 C28.90495749 97.47458998 28.87442842 94.97662874 28.88647461 92.45092773 C28.88632858 91.66074249 28.88618256 90.87055725 28.8860321 90.056427 C28.88673143 87.43212178 28.89452473 84.80788664 28.90234375 82.18359375 C28.90420786 80.36898335 28.9056318 78.55437244 28.90663147 76.73976135 C28.91045721 71.9540977 28.92028796 67.1684642 28.93133545 62.3828125 C28.94154837 57.50325936 28.94612883 52.62370136 28.95117188 47.74414062 C28.96191019 38.16274501 28.97950743 28.58137972 29 19 C19.43 19 9.86 19 0 19 C0 12.73 0 6.46 0 0 Z " fill="#323232" transform="translate(398,69)"/>
<path d="M0 0 C1.03196503 -0.00262848 1.03196503 -0.00262848 2.08477783 -0.00531006 C4.36456812 -0.00972005 6.64428115 -0.00679326 8.92407227 -0.00341797 C10.50586461 -0.00409133 12.08765686 -0.00506163 13.66944885 -0.00631714 C16.98748762 -0.00779302 20.30549951 -0.00564336 23.62353516 -0.00097656 C27.87853103 0.00471601 32.13346376 0.00144402 36.3884573 -0.00454903 C39.65607682 -0.00816156 42.92368137 -0.00701278 46.19130135 -0.00442123 C47.76020376 -0.00375364 49.32910752 -0.00457454 50.89800835 -0.00690079 C53.09089639 -0.00943812 55.28368208 -0.00557121 57.4765625 0 C58.72517563 0.00079559 59.97378876 0.00159119 61.26023865 0.00241089 C64.30297852 0.12939453 64.30297852 0.12939453 67.30297852 1.12939453 C67.51916944 5.66940385 66.79888747 8.8670786 65.30297852 13.12939453 C64.73450195 14.90443359 64.73450195 14.90443359 64.15454102 16.71533203 C62.91682502 20.53884959 61.62876764 24.33559797 60.30297852 28.12939453 C60.0180957 28.95697266 59.73321289 29.78455078 59.43969727 30.63720703 C56.49175916 37.76255506 50.1888638 41.35403724 43.40454102 44.45361328 C33.36065718 48.21018401 23.87631438 48.60096139 13.90454102 44.43408203 C4.09433769 39.51425033 -0.07039955 33.43430808 -3.69702148 23.12939453 C-4.91289917 19.13382163 -5.95361058 15.1105873 -6.93530273 11.05126953 C-7.40062549 8.25717041 -7.40062549 8.25717041 -8.69702148 7.12939453 C-8.73782931 5.12981089 -8.73956505 3.12894199 -8.69702148 1.12939453 C-5.78904583 -0.3245933 -3.24809775 0.00207095 0 0 Z " fill="#353535" transform="translate(165.697021484375,142.87060546875)"/>
<path d="M0 0 C50.82 0 101.64 0 154 0 C154 1.98 154 3.96 154 6 C103.18 6 52.36 6 0 6 C0 4.02 0 2.04 0 0 Z " fill="#434343" transform="translate(118,322)"/>
<path d="M0 0 C1.98 0 3.96 0 6 0 C6 3.96 6 7.92 6 12 C10.62 12 15.24 12 20 12 C20 8.04 20 4.08 20 0 C21.98 0 23.96 0 26 0 C26 10.56 26 21.12 26 32 C24.02 32 22.04 32 20 32 C20 27.38 20 22.76 20 18 C15.38 18 10.76 18 6 18 C6 22.29 6 26.58 6 31 C4.02 31 2.04 31 0 31 C0 20.77 0 10.54 0 0 Z " fill="#DADADA" transform="translate(185,250)"/>
<path d="M0 0 C11.77336479 -1.17245127 18.44746133 0.57994711 28 8 C29.32644531 9.01126953 29.32644531 9.01126953 30.6796875 10.04296875 C40.10545293 17.86840952 46.56466696 28.27300084 52.6875 38.75 C53.03893066 39.34643311 53.39036133 39.94286621 53.75244141 40.55737305 C54.56834553 42.00256269 55.29365365 43.49821856 56 45 C55.505 45.99 55.505 45.99 55 47 C54.34 46.154375 53.68 45.30875 53 44.4375 C50.92695574 41.94231293 48.73560567 39.83085796 46.26269531 37.73364258 C42.25377975 34.26583114 38.50804671 30.60584279 34.796875 26.82421875 C33.47408813 25.48880371 32.15116766 24.153521 30.828125 22.81835938 C28.77672467 20.74203227 26.72698502 18.6641132 24.6796875 16.58374023 C22.68145655 14.55535537 20.67708844 12.53319774 18.671875 10.51171875 C18.0614032 9.88778732 17.4509314 9.2638559 16.82196045 8.62101746 C16.24746155 8.0431398 15.67296265 7.46526215 15.08105469 6.86987305 C14.33115265 6.10878487 14.33115265 6.10878487 13.56610107 5.33232117 C9.40666803 1.79378794 5.25373242 1.52537324 0 1 C0 0.67 0 0.34 0 0 Z " fill="#474747" transform="translate(188,63)"/>
<path d="M0 0 C2.37625177 -0.10883596 4.74743976 -0.18766696 7.125 -0.25 C7.79015625 -0.28351563 8.4553125 -0.31703125 9.140625 -0.3515625 C14.27849634 -0.45230508 17.0236368 0.8334129 21 4 C22.56941198 5.56941198 22.2449847 7.14134994 22.3125 9.3125 C22.28536683 12.72585322 22.23503324 13.68662235 20.125 16.5 C16.77885073 18.86198772 14.93921245 19.11460529 10.875 19.0625 C9.26625 19.041875 7.6575 19.02125 6 19 C6 23.29 6 27.58 6 32 C4.02 32 2.04 32 0 32 C0 26.06 0 20.12 0 14 C7.92 13.505 7.92 13.505 16 13 C16 11.02 16 9.04 16 7 C10.72 6.67 5.44 6.34 0 6 C0 4.02 0 2.04 0 0 Z " fill="#DCDCDC" transform="translate(214,249)"/>
<path d="M0 0 C8.25 0 16.5 0 25 0 C25 1.65 25 3.3 25 5 C21.7 5 18.4 5 15 5 C15 13.91 15 22.82 15 32 C13.02 32 11.04 32 9 32 C9 23.42 9 14.84 9 6 C6.03 6 3.06 6 0 6 C0 4.02 0 2.04 0 0 Z " fill="#DADADA" transform="translate(159,250)"/>
<path d="M0 0 C0.99 1.32 1.98 2.64 3 4 C6.35001268 4.66600399 6.35001268 4.66600399 10.0625 4.6875 C16.86651835 4.93325918 16.86651835 4.93325918 19 6 C19 7.98 19 9.96 19 12 C14.53794887 14.23102556 7.78092876 13.04346299 3 13 C3 18.94 3 24.88 3 31 C2.01 31 1.02 31 0 31 C0 20.77 0 10.54 0 0 Z " fill="#3F3F3F" transform="translate(211,250)"/>
<path d="M0 0 C2.9178516 2.9178516 4.04674235 4.8621727 5.6875 8.5625 C6.12449219 9.53316406 6.56148437 10.50382813 7.01171875 11.50390625 C8 14 8 14 8 16 C5.36 16 2.72 16 0 16 C0 10.72 0 5.44 0 0 Z " fill="#D0D0D0" transform="translate(196,149)"/>
<path d="M0 0 C0.66 0.33 1.32 0.66 2 1 C-3.28 6.28 -8.56 11.56 -14 17 C-14.66 16.67 -15.32 16.34 -16 16 C-14.08743854 13.89197235 -12.17019745 11.78855326 -10.25 9.6875 C-9.71117187 9.09259766 -9.17234375 8.49769531 -8.6171875 7.88476562 C-5.91859521 4.93935086 -3.3371486 2.24366544 0 0 Z " fill="#525252" transform="translate(176,69)"/>
</svg>
