<?xml version="1.0" encoding="UTF-8" standalone="no" ?>
<!DOCTYPE svg PUBLIC "-//W3C//DTD SVG 1.1//EN" "http://www.w3.org/Graphics/SVG/1.1/DTD/svg11.dtd">
<svg xmlns="http://www.w3.org/2000/svg" xmlns:xlink="http://www.w3.org/1999/xlink" version="1.1" width="1080" height="1080" viewBox="0 0 1080 1080" xml:space="preserve">
<desc>Created with Fabric.js 5.2.4</desc>
<defs>
</defs>
<rect x="0" y="0" width="100%" height="100%" fill="transparent"></rect>
<g transform="matrix(1 0 0 1 540 540)" id="4bcf077f-e557-4878-ab6d-0578a5b12520"  >
</g>
<g transform="matrix(1 0 0 1 540 540)" id="5b0583b0-953a-4f6b-a12d-eb021ec3e995"  >
<rect style="stroke: none; stroke-width: 1; stroke-dasharray: none; stroke-linecap: butt; stroke-dashoffset: 0; stroke-linejoin: miter; stroke-miterlimit: 4; fill: rgb(255,255,255); fill-rule: nonzero; opacity: 1; visibility: hidden;" vector-effect="non-scaling-stroke"  x="-540" y="-540" rx="0" ry="0" width="1080" height="1080" />
</g>
<g transform="matrix(1 0 0 1 540 540)"  >
<path style="stroke: none; stroke-width: 1; stroke-dasharray: none; stroke-linecap: butt; stroke-dashoffset: 0; stroke-linejoin: miter; stroke-miterlimit: 4; fill: rgb(237,237,237); fill-rule: nonzero; opacity: 1;" vector-effect="non-scaling-stroke"  transform=" translate(2.69, -176.39)" d="M 0 0 C 2.28125 1.1796875 2.28125 1.1796875 4.5 2.875 C 5.79550781 3.83792969 5.79550781 3.83792969 7.1171875 4.8203125 C 8.06851563 5.53960938 9.01984375 6.25890625 10 7 C 12.20409162 8.58974824 14.41165087 10.17329542 16.625 11.75 C 17.21144287 12.16999268 17.79788574 12.58998535 18.40209961 13.02270508 C 24.91459317 17.6784786 31.52174623 22.19479919 38.12744141 26.71679688 C 47.34088631 33.03046916 56.48884632 39.43748818 65.63574219 45.84692383 C 70.24818907 49.07781644 74.86642342 52.29948834 79.5 55.5 C 85.01628409 59.31021685 90.50947737 63.15276759 96 67 C 110.37956098 77.09900617 110.37956098 77.09900617 124.9375 86.9375 C 129.8772925 90.21343055 134.70448201 93.62045197 139.51416016 97.08227539 C 143.90804434 100.23810051 148.34735089 103.32099104 152.8125 106.375 C 166.00179504 115.40279534 179.00699121 124.69280512 192 134 C 190.00187917 141.64311577 187.71321841 149.14089448 185.1875 156.625 C 184.80859619 157.75526611 184.42969238 158.88553223 184.03930664 160.05004883 C 179.77073167 172.74840932 175.42441629 185.42052062 171.08691406 198.09545898 C 168.00157263 207.11457499 164.9325396 216.13789276 161.9375 225.1875 C 158.4392054 235.7511297 154.84900142 246.28285801 151.25 256.8125 C 150.96905487 257.63559662 150.68810974 258.45869324 150.39865112 259.30673218 C 145.28280359 274.28970102 145.28280359 274.28970102 142.859375 280.82421875 C 141.52483214 284.45349093 140.33551981 288.09871919 139.21875 291.80078125 C 136.53012464 300.68190946 133.50787545 309.44986782 130.50927734 318.23022461 C 129.49888989 321.19075272 128.49342562 324.15292264 127.48828125 327.11523438 C 126.83623386 329.02874685 126.18389991 330.9421617 125.53125 332.85546875 C 125.23633667 333.72552048 124.94142334 334.5955722 124.63757324 335.49198914 C 122.60474855 341.42692024 120.33679501 347.15801248 118 353 C 38.14 353 -41.72 353 -124 353 C -127.8692498 343.32687549 -131.5280486 333.81128673 -134.75 323.9375 C -135.18006453 322.63264161 -135.61066118 321.3279585 -136.04174805 320.0234375 C -136.92955377 317.33517332 -137.81515043 314.64619897 -138.69873047 311.95654297 C -140.72224557 305.79957887 -142.76565317 299.64924167 -144.8125 293.5 C -145.21694336 292.2843335 -145.62138672 291.06866699 -146.03808594 289.81616211 C -149.74498182 278.70479187 -153.54036702 267.62426651 -157.34243774 256.54516602 C -161.35360568 244.85438629 -165.29984627 233.14480778 -169.18920898 221.4128418 C -172.85638492 210.37588948 -176.62347656 199.37412419 -180.39956665 188.37405396 C -184.42715827 176.63950891 -188.40148631 164.8897092 -192.28540039 153.10668945 C -192.61789795 152.10081787 -192.95039551 151.09494629 -193.29296875 150.05859375 C -193.5768042 149.19548584 -193.86063965 148.33237793 -194.15307617 147.44311523 C -194.74227889 145.74344629 -195.3837264 144.0613665 -196.06445312 142.39624023 C -197.449511 138.84865594 -197.70926447 136.78001065 -197 133 C -194.41195138 130.2732916 -191.34901056 128.38155477 -188.1875 126.375 C -187.28692871 125.77526367 -186.38635742 125.17552734 -185.45849609 124.55761719 C -183.57892579 123.30675675 -181.69304689 122.06532871 -179.80126953 120.83300781 C -175.53021882 118.03825021 -171.33072778 115.14168011 -167.125 112.25 C -166.33375732 111.71036621 -165.54251465 111.17073242 -164.72729492 110.61474609 C -159.55112493 107.08419174 -154.4374591 103.47784786 -149.35498047 99.81420898 C -142.76250388 95.07975126 -136.04094242 90.53376441 -129.3359375 85.9609375 C -123.2414952 81.80386998 -117.20828073 77.56355246 -111.1875 73.30078125 C -103.50331932 67.86335928 -95.79555079 62.46700036 -88.02758789 57.14990234 C -83.09295576 53.76625866 -78.1961108 50.33180895 -73.3125 46.875 C -64.78055716 40.83705394 -56.20523961 34.8665149 -47.5703125 28.9765625 C -39.65579744 23.57716755 -31.7606937 18.15617055 -23.9375 12.625 C -23.23423584 12.12991943 -22.53097168 11.63483887 -21.80639648 11.12475586 C -18.81780181 9.01660523 -15.85503149 6.8911814 -12.9296875 4.6953125 C -11.63417969 3.73238281 -11.63417969 3.73238281 -10.3125 2.75 C -9.60738281 2.20859375 -8.90226563 1.6671875 -8.17578125 1.109375 C -5.23982945 -0.38759145 -3.25729755 -0.38022929 0 0 Z" stroke-linecap="round" />
</g>
<g transform="matrix(1 0 0 1 540 514.5)"  >
<path style="stroke: none; stroke-width: 1; stroke-dasharray: none; stroke-linecap: butt; stroke-dashoffset: 0; stroke-linejoin: miter; stroke-miterlimit: 4; fill: rgb(51,51,51); fill-rule: nonzero; opacity: 1;" vector-effect="non-scaling-stroke"  transform=" translate(2.69, -150.89)" d="M 0 0 C 2.28125 1.1796875 2.28125 1.1796875 4.5 2.875 C 5.79550781 3.83792969 5.79550781 3.83792969 7.1171875 4.8203125 C 8.06851563 5.53960938 9.01984375 6.25890625 10 7 C 12.20409162 8.58974824 14.41165087 10.17329542 16.625 11.75 C 17.21144287 12.16999268 17.79788574 12.58998535 18.40209961 13.02270508 C 24.91459317 17.6784786 31.52174623 22.19479919 38.12744141 26.71679688 C 47.34088631 33.03046916 56.48884632 39.43748818 65.63574219 45.84692383 C 70.24818907 49.07781644 74.86642342 52.29948834 79.5 55.5 C 85.01628409 59.31021685 90.50947737 63.15276759 96 67 C 110.37956098 77.09900617 110.37956098 77.09900617 124.9375 86.9375 C 129.8772925 90.21343055 134.70448201 93.62045197 139.51416016 97.08227539 C 143.90804434 100.23810051 148.34735089 103.32099104 152.8125 106.375 C 166.00179504 115.40279534 179.00699121 124.69280512 192 134 C 190.00187917 141.64311577 187.71321841 149.14089448 185.1875 156.625 C 184.80859619 157.75526611 184.42969238 158.88553223 184.03930664 160.05004883 C 179.77073167 172.74840932 175.42441629 185.42052062 171.08691406 198.09545898 C 168.00157263 207.11457499 164.9325396 216.13789276 161.9375 225.1875 C 158.4392054 235.7511297 154.84900142 246.28285801 151.25 256.8125 C 150.96905487 257.63559662 150.68810974 258.45869324 150.39865112 259.30673218 C 147.60728551 267.48190622 144.7891895 275.64006061 141.80908203 283.7487793 C 140.70985326 286.80731536 139.7471178 289.88715053 138.8125 293 C 137.9036224 296.01269389 136.99512321 299.01463036 136 302 C 124.78 302 113.56 302 102 302 C 103.63844866 298.72310268 105.10508769 296.47780705 107.375 293.6875 C 114.57103184 284.54659469 118.26205738 275.81468178 117 264 C 112.95403337 247.0786913 105.49966901 229.92775604 98.0625 214.24609375 C 97.3774262 212.79786788 96.72835018 211.33178996 96.125 209.84765625 C 91.62913038 199.39074522 80.59718672 193.46290636 71.4375 187.5 C 70.32183125 186.76628507 69.20659416 186.03191335 68.09179688 185.296875 C 65.39868024 183.52478094 62.70145055 181.75935208 60 180 C 60.37890625 178.0625 60.37890625 178.0625 61 176 C 62.32467746 175.3162955 63.65863633 174.65035814 65 174 C 65.67784722 172.67231578 66.34308319 171.33816387 67 170 C 67.94543949 168.84651115 68.9262068 167.72121094 69.9375 166.625 C 74.19671431 161.72013462 76.33885243 157.83990964 76.22988892 151.17660522 C 75.83523887 147.44002945 74.4150989 144.26597835 72.88671875 140.86328125 C 72.56138657 140.10972351 72.23605438 139.35616577 71.90086365 138.57977295 C 70.8456159 136.15003155 69.76816256 133.73103322 68.6875 131.3125 C 67.94951166 129.63802555 67.21171962 127.96346456 66.47412109 126.28881836 C 49.73938121 88.11966017 49.73938121 88.11966017 20 60 C 18.40671875 59.01773438 18.40671875 59.01773438 16.78125 58.015625 C 7.18828833 52.61418262 -1.47148558 50.91279685 -12.2265625 53.89453125 C -38.58800513 64.07808596 -52.36011064 87.67297853 -64 112 C -65.02037679 114.32449471 -66.01866911 116.65875372 -67 119 C -67.87312557 120.99358173 -68.74980553 122.98560838 -69.62890625 124.9765625 C -70.10650391 126.059375 -70.58410156 127.1421875 -71.07617188 128.2578125 C -72.0705805 130.51058579 -73.0653749 132.76318882 -74.06054688 135.015625 C -74.53685547 136.09585938 -75.01316406 137.17609375 -75.50390625 138.2890625 C -75.93517822 139.26568848 -76.3664502 140.24231445 -76.81079102 141.24853516 C -80.13698271 148.83536149 -80.13698271 148.83536149 -80 157 C -76.92871685 164.00071896 -71.01117457 173.49441271 -64 177 C -64 177.99 -64 178.98 -64 180 C -66.36743164 181.88183594 -66.36743164 181.88183594 -69.66015625 183.984375 C -70.24284775 184.36305725 -70.82553925 184.7417395 -71.42588806 185.13189697 C -73.29848312 186.34799311 -75.17940123 187.55024311 -77.0625 188.75 C -92.29162774 198.28438811 -92.29162774 198.28438811 -102 213 C -102.29132813 213.69222656 -102.58265625 214.38445312 -102.8828125 215.09765625 C -103.95342554 217.72020836 -104.97843731 220.35791279 -106 223 C -106.55572585 224.42979004 -107.11173911 225.85946838 -107.66796875 227.2890625 C -108.58785419 229.65359692 -109.50711681 232.01836082 -110.42407227 234.3840332 C -112.00345718 238.45597156 -113.6039153 242.51693031 -115.25 246.5625 C -115.5490625 247.32691406 -115.848125 248.09132812 -116.15625 248.87890625 C -116.70389446 250.25562357 -117.28569478 251.61941584 -117.90625 252.96484375 C -120.11225051 258.28579869 -120.31296857 263.43648794 -120.375 269.125 C -120.39578613 270.27162109 -120.39578613 270.27162109 -120.41699219 271.44140625 C -120.35535762 278.92838385 -117.56808845 284.43378618 -113.5625 290.6875 C -112.98628906 291.59886719 -112.41007812 292.51023437 -111.81640625 293.44921875 C -110.06752402 296.05750878 -110.06752402 296.05750878 -107.77734375 298.20703125 C -106 300 -106 300 -106 302 C -117.88 302 -129.76 302 -142 302 C -143.051875 298.82375 -144.10375 295.6475 -145.1875 292.375 C -148.851021 281.35226644 -152.60540613 270.36178491 -156.375 259.375 C -160.30053376 247.93295726 -164.19345391 236.48228456 -168 225 C -172.05628244 212.76450601 -176.21435757 200.56592245 -180.39956665 188.37405396 C -184.42715827 176.63950891 -188.40148631 164.8897092 -192.28540039 153.10668945 C -192.61789795 152.10081787 -192.95039551 151.09494629 -193.29296875 150.05859375 C -193.5768042 149.19548584 -193.86063965 148.33237793 -194.15307617 147.44311523 C -194.74227889 145.74344629 -195.3837264 144.0613665 -196.06445312 142.39624023 C -197.449511 138.84865594 -197.70926447 136.78001065 -197 133 C -194.41195138 130.2732916 -191.34901056 128.38155477 -188.1875 126.375 C -187.28692871 125.77526367 -186.38635742 125.17552734 -185.45849609 124.55761719 C -183.57892579 123.30675675 -181.69304689 122.06532871 -179.80126953 120.83300781 C -175.53021882 118.03825021 -171.33072778 115.14168011 -167.125 112.25 C -166.33375732 111.71036621 -165.54251465 111.17073242 -164.72729492 110.61474609 C -159.55112493 107.08419174 -154.4374591 103.47784786 -149.35498047 99.81420898 C -142.76250388 95.07975126 -136.04094242 90.53376441 -129.3359375 85.9609375 C -123.2414952 81.80386998 -117.20828073 77.56355246 -111.1875 73.30078125 C -103.50331932 67.86335928 -95.79555079 62.46700036 -88.02758789 57.14990234 C -83.09295576 53.76625866 -78.1961108 50.33180895 -73.3125 46.875 C -64.78055716 40.83705394 -56.20523961 34.8665149 -47.5703125 28.9765625 C -39.65579744 23.57716755 -31.7606937 18.15617055 -23.9375 12.625 C -23.23423584 12.12991943 -22.53097168 11.63483887 -21.80639648 11.12475586 C -18.81780181 9.01660523 -15.85503149 6.8911814 -12.9296875 4.6953125 C -11.63417969 3.73238281 -11.63417969 3.73238281 -10.3125 2.75 C -9.60738281 2.20859375 -8.90226563 1.6671875 -8.17578125 1.109375 C -5.23982945 -0.38759145 -3.25729755 -0.38022929 0 0 Z" stroke-linecap="round" />
</g>
<g transform="matrix(1 0 0 1 540.41 625.97)"  >
<path style="stroke: none; stroke-width: 1; stroke-dasharray: none; stroke-linecap: butt; stroke-dashoffset: 0; stroke-linejoin: miter; stroke-miterlimit: 4; fill: rgb(53,53,53); fill-rule: nonzero; opacity: 1;" vector-effect="non-scaling-stroke"  transform=" translate(-75.04, -49.62)" d="M 0 0 C 1.14725524 0.00054477 2.29451048 0.00108953 3.47653103 0.00165081 C 4.79044323 -0.00254368 6.10435543 -0.00673817 7.45808315 -0.01105976 C 8.9226835 -0.00557586 10.3872831 0.00010713 11.85188198 0.00596905 C 13.38748156 0.00489664 14.92308074 0.00295857 16.45867825 0.00021648 C 20.63621944 -0.00464116 24.81365424 0.00303493 28.99118257 0.01316953 C 33.35493972 0.02193371 37.71869338 0.02019291 42.08245754 0.01980877 C 49.41056513 0.02074607 56.73863136 0.02943936 64.06672573 0.04307842 C 72.55096224 0.05881049 81.03515347 0.06407636 89.51940352 0.06334287 C 97.66727363 0.06273348 105.81512891 0.0678304 113.96299458 0.07613468 C 117.43707234 0.07967413 120.91114486 0.08149887 124.38522434 0.08202839 C 128.4719138 0.08302962 132.55856492 0.08910817 136.64524174 0.09919453 C 138.14933697 0.10212641 139.65343662 0.10334351 141.1575346 0.10276699 C 143.20210329 0.10227968 145.24667036 0.10852525 147.29122829 0.1151762 C 149.01154562 0.11768997 149.01154562 0.11768997 150.76661682 0.12025452 C 153.32038784 0.24888897 153.32038784 0.24888897 154.32038784 1.24888897 C 156.24394205 33.48377812 153.34409278 67.51403583 152.32038784 99.24888897 C 101.50038784 99.24888897 50.68038784 99.24888897 -1.67961216 99.24888897 C -2.17461216 85.10013897 -2.66961216 70.95138897 -3.17961216 56.37388897 C -3.33623325 51.92291729 -3.49285435 47.47194561 -3.65422153 42.886096 C -3.84465122 37.40880108 -3.84465122 37.40880108 -3.93364048 34.83650494 C -3.99550271 33.05775543 -4.05804359 31.27902944 -4.12114048 29.5003233 C -4.21713339 26.79042669 -4.31090404 24.08046089 -4.40422153 21.370471 C -4.43232662 20.59140455 -4.46043171 19.8123381 -4.48938847 19.00966358 C -4.56565523 16.75622087 -4.62509183 14.50295676 -4.67961216 12.24888897 C -4.70835926 11.35146858 -4.73710636 10.45404819 -4.76672459 9.52943325 C -4.78490742 8.62997101 -4.80309025 7.73050877 -4.82182407 6.80379009 C -4.84254223 5.98117624 -4.86326038 5.15856239 -4.88460636 4.31102085 C -4.54764596 0.92137964 -3.25860438 0.30266719 0 0 Z" stroke-linecap="round" />
</g>
<g transform="matrix(1 0 0 1 539.69 696.26)"  >
<path style="stroke: none; stroke-width: 1; stroke-dasharray: none; stroke-linecap: butt; stroke-dashoffset: 0; stroke-linejoin: miter; stroke-miterlimit: 4; fill: rgb(52,52,52); fill-rule: nonzero; opacity: 1;" vector-effect="non-scaling-stroke"  transform=" translate(-134, -19.66)" d="M 0 0 C 5.87146998 -0.14867376 11.74183713 -0.25737011 17.61474609 -0.32958984 C 19.61103407 -0.35970416 21.60719035 -0.40060555 23.60302734 -0.45263672 C 26.47786984 -0.52568952 29.35095901 -0.55950922 32.2265625 -0.5859375 C 33.11429352 -0.61690521 34.00202454 -0.64787292 34.91665649 -0.67977905 C 39.44175813 -0.68221916 42.19083575 -0.38392603 45.56494141 2.7878418 C 48.72659351 6.26034506 48.82519494 9.65491607 48.75 14.1875 C 48.6590103 19.88161482 48.6590103 19.88161482 51 25 C 53.98119975 25.45561664 53.98119975 25.45561664 57.56028748 25.3742218 C 58.58260557 25.38018341 58.58260557 25.38018341 59.62557656 25.38626546 C 61.92043399 25.39592729 64.21468087 25.38404747 66.50952148 25.37231445 C 68.15025056 25.37474117 69.79097816 25.37845932 71.43170166 25.38337708 C 75.89659679 25.39280694 80.3612735 25.38334276 84.82615161 25.37004495 C 89.4919354 25.35875386 94.15770807 25.36283619 98.82350159 25.36479187 C 106.66109803 25.36567568 114.49860813 25.3545771 122.33618164 25.33618164 C 131.40434569 25.31502006 140.47238312 25.31150206 149.54056686 25.3177436 C 158.25334502 25.32343409 166.96607846 25.31779483 175.67885017 25.30657005 C 179.39131558 25.30191914 183.1037537 25.30105235 186.81622124 25.3031559 C 191.18694129 25.30503655 195.55753208 25.29695212 199.92822266 25.2810955 C 201.53467842 25.27684486 203.14114729 25.27600733 204.74760628 25.27878571 C 206.93612338 25.28199708 209.12425176 25.27295239 211.31272888 25.26069641 C 213.1519575 25.25761711 213.1519575 25.25761711 215.02834225 25.25447559 C 218.18513088 25.22446323 218.18513088 25.22446323 221 23 C 221.32108829 19.46056164 221.38808715 16.02163472 221.3515625 12.47265625 C 221.36703125 11.73402344 221.3825 10.99539063 221.3984375 10.234375 C 221.39336182 9.23229004 221.39336182 9.23229004 221.38818359 8.20996094 C 222.3662211 4.67716145 224.07454786 2.14166623 227 0 C 230.16806691 -0.80873075 233.20487057 -0.70156303 236.45703125 -0.5859375 C 237.81147591 -0.57320297 237.81147591 -0.57320297 239.19328308 -0.56021118 C 242.06758692 -0.52671545 244.93904933 -0.45144586 247.8125 -0.375 C 249.76493334 -0.34489533 251.71741081 -0.3175204 253.66992188 -0.29296875 C 258.44770364 -0.22693687 263.22337069 -0.12344347 268 0 C 266.98174587 4.7711584 265.96412613 9.48885915 264.4140625 14.12109375 C 264.12273437 14.99443359 263.83140625 15.86777344 263.53125 16.76757812 C 263.2321875 17.64865234 262.933125 18.52972656 262.625 19.4375 C 262.33367187 20.31470703 262.04234375 21.19191406 261.7421875 22.09570312 C 259.69799493 28.17896918 257.39521073 34.01197318 255 40 C 175.14 40 95.28 40 13 40 C 9.42621443 31.06553608 5.97358513 22.39136864 3.125 13.25 C 2.81820312 12.29351562 2.51140625 11.33703125 2.1953125 10.3515625 C 0 3.39320592 0 3.39320592 0 0 Z" stroke-linecap="round" />
</g>
<g transform="matrix(1 0 0 1 541.19 462.73)"  >
<path style="stroke: none; stroke-width: 1; stroke-dasharray: none; stroke-linecap: butt; stroke-dashoffset: 0; stroke-linejoin: miter; stroke-miterlimit: 4; fill: rgb(57,57,57); fill-rule: nonzero; opacity: 1;" vector-effect="non-scaling-stroke"  transform=" translate(11.02, -34.66)" d="M 0 0 C 3.34450255 1.99559286 6.40539145 4.13873932 9.48046875 6.52734375 C 10.36476563 7.20152344 11.2490625 7.87570313 12.16015625 8.5703125 C 21.58592168 16.39575327 28.04513571 26.80034459 34.16796875 37.27734375 C 34.51939941 37.87377686 34.87083008 38.47020996 35.23291016 39.0847168 C 36.04881428 40.52990644 36.7741224 42.02556231 37.48046875 43.52734375 C 36.98546875 44.51734375 36.98546875 44.51734375 36.48046875 45.52734375 C 35.49046875 44.25890625 35.49046875 44.25890625 34.48046875 42.96484375 C 32.40720468 40.46894114 30.21548544 38.35950679 27.7409668 36.26318359 C 23.72965074 32.79340235 20.00597979 29.11904085 16.3125 25.31640625 C 14.99457942 23.97613088 13.6762071 22.6362996 12.35742188 21.296875 C 10.31210607 19.21429086 8.27008997 17.12880524 6.2355957 15.03564453 C 4.24944658 12.99512265 2.25091456 10.96743715 0.25 8.94140625 C -0.65796577 7.99776718 -0.65796577 7.99776718 -1.58427429 7.0350647 C -5.78021107 2.8132118 -5.78021107 2.8132118 -11.51953125 1.52734375 C -10.14096307 6.03902142 -8.20510991 7.69887641 -4.51953125 10.52734375 C -3.32206312 11.98372391 -2.12570385 13.44111653 -0.94512939 14.91122437 C 0.62132766 16.68702746 2.29667048 18.16639138 4.10253906 19.69775391 C 11.283878 25.90941844 17.93735922 32.68219735 24.67236328 39.36914062 C 26.37960091 41.05975884 28.0921945 42.74498529 29.81005859 44.42480469 C 32.3114906 46.8713074 34.79591938 49.33400663 37.27734375 51.80078125 C 38.04093201 52.54170013 38.80452026 53.28261902 39.59124756 54.04598999 C 44.25132307 58.72465011 49.48046875 64.5038498 49.48046875 71.52734375 C 46.23485575 70.10660051 44.11785285 68.38971694 41.65234375 65.859375 C 40.57533203 64.76592773 40.57533203 64.76592773 39.4765625 63.65039062 C 38.73535156 62.88791016 37.99414062 62.12542969 37.23046875 61.33984375 C 31.21742329 55.16017243 31.21742329 55.16017243 24.828125 49.37890625 C 20.91118286 46.01675945 17.30082763 42.39219502 13.6796875 38.71875 C 12.76804337 37.79528526 12.76804337 37.79528526 11.83798218 36.85316467 C 9.29701361 34.27558925 6.75911639 31.69514259 4.23022461 29.10571289 C 2.36585392 27.1992229 0.49233367 25.30213416 -1.3828125 23.40625 C -2.24064079 22.52049034 -2.24064079 22.52049034 -3.11579895 21.61683655 C -4.52773552 20.19577569 -6.01817784 18.85358535 -7.51953125 17.52734375 C -8.50953125 17.52734375 -9.49953125 17.52734375 -10.51953125 17.52734375 C -10.84953125 18.84734375 -11.17953125 20.16734375 -11.51953125 21.52734375 C -10.94841614 21.77346909 -10.37730103 22.01959442 -9.78887939 22.2731781 C -7.1379833 23.73820797 -5.34995765 25.44986103 -3.20996094 27.59399414 C -2.36939148 28.43148697 -1.52882202 29.2689798 -0.66278076 30.1318512 C 0.68429962 31.48970985 0.68429962 31.48970985 2.05859375 32.875 C 2.98516785 33.80203232 3.91174194 34.72906464 4.86639404 35.68418884 C 6.82290042 37.64225634 8.77600923 39.60362946 10.7265625 41.56762695 C 13.23232505 44.09043759 15.74467927 46.6065562 18.25935745 49.12047672 C 20.65357267 51.51502827 23.04352464 53.91380978 25.43359375 56.3125 C 26.33974426 57.21976334 27.24589478 58.12702667 28.17950439 59.06178284 C 29.00746521 59.8961235 29.83542603 60.73046417 30.68847656 61.59008789 C 31.42253723 62.32796036 32.1565979 63.06583282 32.91290283 63.82606506 C 34.48046875 65.52734375 34.48046875 65.52734375 34.48046875 66.52734375 C 26.02272227 66.79962533 26.02272227 66.79962533 22.5390625 63.92578125 C 20.85546875 61.90234375 20.85546875 61.90234375 19.44140625 59.92578125 C 17.11639485 57.08204221 14.48103248 54.87813706 11.69628906 52.49414062 C 7.01302213 48.33719942 2.73562379 43.7392805 -1.60351562 39.22851562 C -2.32474609 38.49310547 -3.04597656 37.75769531 -3.7890625 37 C -4.43464111 36.33234619 -5.08021973 35.66469238 -5.74536133 34.97680664 C -7.52490653 33.21100348 -7.52490653 33.21100348 -10.51953125 33.52734375 C -10.84953125 34.84734375 -11.17953125 36.16734375 -11.51953125 37.52734375 C -10.97135742 37.750271 -10.42318359 37.97319824 -9.85839844 38.20288086 C -6.80953886 39.92940103 -4.53587292 42.24421914 -2.09765625 44.71875 C -1.34038239 45.4767112 -1.34038239 45.4767112 -0.56781006 46.24998474 C 0.49346747 47.31427364 1.5523233 48.38098224 2.60888672 49.44995117 C 4.233502 51.09291125 5.86606653 52.72763992 7.5 54.36132812 C 8.53042274 55.39666307 9.5603871 56.43245445 10.58984375 57.46875 C 11.08039246 57.96041153 11.57094116 58.45207306 12.07635498 58.95863342 C 15.48046875 62.41127125 15.48046875 62.41127125 15.48046875 63.52734375 C 7.49113691 64.31061158 7.49113691 64.31061158 3.98046875 61.58984375 C 3.15546875 60.57921875 2.33046875 59.56859375 1.48046875 58.52734375 C -0.04320045 56.90607296 -1.58640613 55.30302916 -3.14453125 53.71484375 C -3.89992188 52.92464844 -4.6553125 52.13445312 -5.43359375 51.3203125 C -7.44027257 49.20142209 -7.44027257 49.20142209 -10.51953125 49.52734375 C -9.95290696 53.15054696 -8.62866124 54.70200028 -5.95703125 57.15234375 C -4.7761813 58.24053143 -3.62142789 59.35927577 -2.51953125 60.52734375 C -2.51953125 61.18734375 -2.51953125 61.84734375 -2.51953125 62.52734375 C -3.42380859 62.53668945 -4.32808594 62.54603516 -5.25976562 62.55566406 C -36.98939172 62.77809945 -36.98939172 62.77809945 -67.72241211 69.94580078 C -69.51953125 70.52734375 -69.51953125 70.52734375 -71.51953125 70.52734375 C -71.13194222 65.48868636 -69.31432938 62.16976005 -66.82421875 57.9140625 C -65.59427343 55.6640727 -64.70215428 53.49718413 -63.83203125 51.08984375 C -55.83271253 30.51559599 -41.7303157 9.05087153 -21.2578125 -0.53125 C -14.34903426 -2.90645051 -6.70583707 -2.80588299 0 0 Z" stroke-linecap="round" />
</g>
<g transform="matrix(1 0 0 1 540.69 530.17)"  >
<path style="stroke: none; stroke-width: 1; stroke-dasharray: none; stroke-linecap: butt; stroke-dashoffset: 0; stroke-linejoin: miter; stroke-miterlimit: 4; fill: rgb(53,53,53); fill-rule: nonzero; opacity: 1;" vector-effect="non-scaling-stroke"  transform=" translate(-29.31, -23.69)" d="M 0 0 C 1.03196503 -0.00262848 1.03196503 -0.00262848 2.08477783 -0.00531006 C 4.36456812 -0.00972005 6.64428115 -0.00679326 8.92407227 -0.00341797 C 10.50586461 -0.00409133 12.08765686 -0.00506163 13.66944885 -0.00631714 C 16.98748762 -0.00779302 20.30549951 -0.00564336 23.62353516 -0.00097656 C 27.87853103 0.00471601 32.13346376 0.00144402 36.3884573 -0.00454903 C 39.65607682 -0.00816156 42.92368137 -0.00701278 46.19130135 -0.00442123 C 47.76020376 -0.00375364 49.32910752 -0.00457454 50.89800835 -0.00690079 C 53.09089639 -0.00943812 55.28368208 -0.00557121 57.4765625 0 C 58.72517563 0.00079559 59.97378876 0.00159119 61.26023865 0.00241089 C 64.30297852 0.12939453 64.30297852 0.12939453 67.30297852 1.12939453 C 67.51916944 5.66940385 66.79888747 8.8670786 65.30297852 13.12939453 C 64.73450195 14.90443359 64.73450195 14.90443359 64.15454102 16.71533203 C 62.91682502 20.53884959 61.62876764 24.33559797 60.30297852 28.12939453 C 60.0180957 28.95697266 59.73321289 29.78455078 59.43969727 30.63720703 C 56.49175916 37.76255506 50.1888638 41.35403724 43.40454102 44.45361328 C 33.36065718 48.21018401 23.87631438 48.60096139 13.90454102 44.43408203 C 4.09433769 39.51425033 -0.07039955 33.43430808 -3.69702148 23.12939453 C -4.91289917 19.13382163 -5.95361058 15.1105873 -6.93530273 11.05126953 C -7.40062549 8.25717041 -7.40062549 8.25717041 -8.69702148 7.12939453 C -8.73782931 5.12981089 -8.73956505 3.12894199 -8.69702148 1.12939453 C -5.78904583 -0.3245933 -3.24809775 0.00207095 0 0 Z" stroke-linecap="round" />
</g>
<g transform="matrix(1 0 0 1 540.69 688.6)"  >
<path style="stroke: none; stroke-width: 1; stroke-dasharray: none; stroke-linecap: butt; stroke-dashoffset: 0; stroke-linejoin: miter; stroke-miterlimit: 4; fill: rgb(67,67,67); fill-rule: nonzero; opacity: 1;" vector-effect="non-scaling-stroke"  transform=" translate(-77, -3)" d="M 0 0 C 50.82 0 101.64 0 154 0 C 154 1.98 154 3.96 154 6 C 103.18 6 52.36 6 0 6 C 0 4.02 0 2.04 0 0 Z" stroke-linecap="round" />
</g>
<g transform="matrix(1 0 0 1 543.69 629.6)"  >
<path style="stroke: none; stroke-width: 1; stroke-dasharray: none; stroke-linecap: butt; stroke-dashoffset: 0; stroke-linejoin: miter; stroke-miterlimit: 4; fill: rgb(218,218,218); fill-rule: nonzero; opacity: 1;" vector-effect="non-scaling-stroke"  transform=" translate(-13, -16)" d="M 0 0 C 1.98 0 3.96 0 6 0 C 6 3.96 6 7.92 6 12 C 10.62 12 15.24 12 20 12 C 20 8.04 20 4.08 20 0 C 21.98 0 23.96 0 26 0 C 26 10.56 26 21.12 26 32 C 24.02 32 22.04 32 20 32 C 20 27.38 20 22.76 20 18 C 15.38 18 10.76 18 6 18 C 6 22.29 6 26.58 6 31 C 4.02 31 2.04 31 0 31 C 0 20.77 0 10.54 0 0 Z" stroke-linecap="round" />
</g>
<g transform="matrix(1 0 0 1 561.69 449.94)"  >
<path style="stroke: none; stroke-width: 1; stroke-dasharray: none; stroke-linecap: butt; stroke-dashoffset: 0; stroke-linejoin: miter; stroke-miterlimit: 4; fill: rgb(71,71,71); fill-rule: nonzero; opacity: 1;" vector-effect="non-scaling-stroke"  transform=" translate(-28, -23.33)" d="M 0 0 C 11.77336479 -1.17245127 18.44746133 0.57994711 28 8 C 29.32644531 9.01126953 29.32644531 9.01126953 30.6796875 10.04296875 C 40.10545293 17.86840952 46.56466696 28.27300084 52.6875 38.75 C 53.03893066 39.34643311 53.39036133 39.94286621 53.75244141 40.55737305 C 54.56834553 42.00256269 55.29365365 43.49821856 56 45 C 55.505 45.99 55.505 45.99 55 47 C 54.34 46.154375 53.68 45.30875 53 44.4375 C 50.92695574 41.94231293 48.73560567 39.83085796 46.26269531 37.73364258 C 42.25377975 34.26583114 38.50804671 30.60584279 34.796875 26.82421875 C 33.47408813 25.48880371 32.15116766 24.153521 30.828125 22.81835938 C 28.77672467 20.74203227 26.72698502 18.6641132 24.6796875 16.58374023 C 22.68145655 14.55535537 20.67708844 12.53319774 18.671875 10.51171875 C 18.0614032 9.88778732 17.4509314 9.2638559 16.82196045 8.62101746 C 16.24746155 8.0431398 15.67296265 7.46526215 15.08105469 6.86987305 C 14.33115265 6.10878487 14.33115265 6.10878487 13.56610107 5.33232117 C 9.40666803 1.79378794 5.25373242 1.52537324 0 1 C 0 0.67 0 0.34 0 0 Z" stroke-linecap="round" />
</g>
<g transform="matrix(1 0 0 1 570.85 628.42)"  >
<path style="stroke: none; stroke-width: 1; stroke-dasharray: none; stroke-linecap: butt; stroke-dashoffset: 0; stroke-linejoin: miter; stroke-miterlimit: 4; fill: rgb(220,220,220); fill-rule: nonzero; opacity: 1;" vector-effect="non-scaling-stroke"  transform=" translate(-11.16, -15.82)" d="M 0 0 C 2.37625177 -0.10883596 4.74743976 -0.18766696 7.125 -0.25 C 7.79015625 -0.28351563 8.4553125 -0.31703125 9.140625 -0.3515625 C 14.27849634 -0.45230508 17.0236368 0.8334129 21 4 C 22.56941198 5.56941198 22.2449847 7.14134994 22.3125 9.3125 C 22.28536683 12.72585322 22.23503324 13.68662235 20.125 16.5 C 16.77885073 18.86198772 14.93921245 19.11460529 10.875 19.0625 C 9.26625 19.041875 7.6575 19.02125 6 19 C 6 23.29 6 27.58 6 32 C 4.02 32 2.04 32 0 32 C 0 26.06 0 20.12 0 14 C 7.92 13.505 7.92 13.505 16 13 C 16 11.02 16 9.04 16 7 C 10.72 6.67 5.44 6.34 0 6 C 0 4.02 0 2.04 0 0 Z" stroke-linecap="round" />
</g>
<g transform="matrix(1 0 0 1 517.19 629.6)"  >
<path style="stroke: none; stroke-width: 1; stroke-dasharray: none; stroke-linecap: butt; stroke-dashoffset: 0; stroke-linejoin: miter; stroke-miterlimit: 4; fill: rgb(218,218,218); fill-rule: nonzero; opacity: 1;" vector-effect="non-scaling-stroke"  transform=" translate(-12.5, -16)" d="M 0 0 C 8.25 0 16.5 0 25 0 C 25 1.65 25 3.3 25 5 C 21.7 5 18.4 5 15 5 C 15 13.91 15 22.82 15 32 C 13.02 32 11.04 32 9 32 C 9 23.42 9 14.84 9 6 C 6.03 6 3.06 6 0 6 C 0 4.02 0 2.04 0 0 Z" stroke-linecap="round" />
</g>
<g transform="matrix(1 0 0 1 566.19 629.1)"  >
<path style="stroke: none; stroke-width: 1; stroke-dasharray: none; stroke-linecap: butt; stroke-dashoffset: 0; stroke-linejoin: miter; stroke-miterlimit: 4; fill: rgb(63,63,63); fill-rule: nonzero; opacity: 1;" vector-effect="non-scaling-stroke"  transform=" translate(-9.5, -15.5)" d="M 0 0 C 0.99 1.32 1.98 2.64 3 4 C 6.35001268 4.66600399 6.35001268 4.66600399 10.0625 4.6875 C 16.86651835 4.93325918 16.86651835 4.93325918 19 6 C 19 7.98 19 9.96 19 12 C 14.53794887 14.23102556 7.78092876 13.04346299 3 13 C 3 18.94 3 24.88 3 31 C 2.01 31 1.02 31 0 31 C 0 20.77 0 10.54 0 0 Z" stroke-linecap="round" />
</g>
<g transform="matrix(1 0 0 1 545.69 520.6)"  >
<path style="stroke: none; stroke-width: 1; stroke-dasharray: none; stroke-linecap: butt; stroke-dashoffset: 0; stroke-linejoin: miter; stroke-miterlimit: 4; fill: rgb(208,208,208); fill-rule: nonzero; opacity: 1;" vector-effect="non-scaling-stroke"  transform=" translate(-4, -8)" d="M 0 0 C 2.9178516 2.9178516 4.04674235 4.8621727 5.6875 8.5625 C 6.12449219 9.53316406 6.56148437 10.50382813 7.01171875 11.50390625 C 8 14 8 14 8 16 C 5.36 16 2.72 16 0 16 C 0 10.72 0 5.44 0 0 Z" stroke-linecap="round" />
</g>
<g transform="matrix(1 0 0 1 514.69 441.1)"  >
<path style="stroke: none; stroke-width: 1; stroke-dasharray: none; stroke-linecap: butt; stroke-dashoffset: 0; stroke-linejoin: miter; stroke-miterlimit: 4; fill: rgb(82,82,82); fill-rule: nonzero; opacity: 1;" vector-effect="non-scaling-stroke"  transform=" translate(7, -8.5)" d="M 0 0 C 0.66 0.33 1.32 0.66 2 1 C -3.28 6.28 -8.56 11.56 -14 17 C -14.66 16.67 -15.32 16.34 -16 16 C -14.08743854 13.89197235 -12.17019745 11.78855326 -10.25 9.6875 C -9.71117187 9.09259766 -9.17234375 8.49769531 -8.6171875 7.88476562 C -5.91859521 4.93935086 -3.3371486 2.24366544 0 0 Z" stroke-linecap="round" />
</g>
</svg>